<svg xmlns="http://www.w3.org/2000/svg" xmlns:xlink="http://www.w3.org/1999/xlink" xmlns:lucid="lucid" width="2317.53" height="1680"><g transform="translate(0 0)" lucid:page-tab-id="HowzCfBBZfS3"><path d="M0 0h2317.53v1680H0z" fill="#fff"/><path d="M400 222a2 2 0 0 1 2-2h1278.26a2 2 0 0 1 2 2v1456a2 2 0 0 1-2 2H402a2 2 0 0 1-2-2z" fill="#f6f6f6"/><path d="M451.72 248.08c.02-2.27.85-4.2 2.48-5.8 1.64-1.6 3.6-2.38 5.87-2.37 1.06 0 2.07.18 3.03.57.97.4 1.84.96 2.58 1.7l-1.63 1.56c-1.13-1.07-2.44-1.6-3.98-1.6-1.06 0-2.07.27-3 .8-.9.55-1.63 1.28-2.15 2.2-.53.94-.76 1.93-.74 3-.02 1.06.2 2.05.74 2.97.52.93 1.24 1.66 2.16 2.2.92.54 1.93.8 3 .8.77.04 1.5-.1 2.22-.37.7-.3 1.33-.7 1.88-1.26.74-.8 1.16-1.73 1.22-2.8h-5.33v-2.33h7.47c.1.47.14.93.14 1.4.07 2-.6 3.75-1.95 5.23-.74.77-1.6 1.35-2.58 1.75-1 .4-2.02.58-3.08.54-2.28 0-4.23-.78-5.87-2.37-1.63-1.6-2.46-3.54-2.48-5.82zm0 0M473.75 245.73c-1.45 0-2.7.52-3.72 1.55-1.04 1.03-1.54 2.26-1.54 3.72 0 1.45.5 2.7 1.55 3.72 1.04 1.03 2.28 1.54 3.73 1.54 1.45 0 2.7-.5 3.72-1.54 1.04-1.03 1.54-2.27 1.54-3.72.03-.95-.2-1.84-.66-2.66-.46-.82-1.13-1.47-1.96-1.94-.83-.46-1.72-.7-2.67-.67zm0 8.45c-.55 0-1.06-.16-1.54-.45-.47-.3-.84-.68-1.1-1.17-.25-.5-.36-1.02-.34-1.57 0-.84.3-1.55.88-2.13.57-.6 1.3-.88 2.1-.88.84 0 1.58.28 2.15.87.57.58.87 1.3.87 2.12.02.54-.1 1.07-.35 1.56-.25.5-.62.88-1.1 1.18-.5.3-1 .44-1.57.45zM485.32 245.73c-1.45 0-2.7.52-3.72 1.55-1.04 1.03-1.55 2.28-1.55 3.73 0 1.46.53 2.7 1.57 3.72 1.03 1.03 2.28 1.54 3.73 1.54 1.44 0 2.7-.5 3.72-1.54 1.04-1.03 1.54-2.27 1.54-3.72.03-.95-.2-1.84-.68-2.66-.48-.83-1.1-1.47-1.93-1.94-.84-.47-1.74-.7-2.68-.67zm0 8.45c-.55 0-1.08-.16-1.56-.45-.5-.3-.83-.68-1.08-1.17-.26-.5-.4-1.02-.37-1.57 0-.84.33-1.55.9-2.13.58-.6 1.3-.88 2.12-.88.83 0 1.54.28 2.12.87.57.58.87 1.3.87 2.12.03.54-.08 1.07-.33 1.56-.26.5-.62.88-1.1 1.18-.5.3-1 .44-1.55.45zM499.5 246.05v.85h-.08c-.37-.38-.78-.68-1.26-.9-.5-.2-1-.28-1.52-.27-1.4.06-2.62.6-3.6 1.62-.96 1.02-1.46 2.23-1.46 3.64 0 1.4.5 2.62 1.47 3.63.97 1.02 2.2 1.56 3.6 1.62.52.02 1.02-.08 1.5-.3.5-.2.93-.5 1.27-.9h.07v.76c0 2-1.1 3.1-2.84 3.1-.57 0-1.1-.2-1.6-.53-.47-.34-.8-.78-1.02-1.33l-2 .84c.4.94 1 1.7 1.86 2.27.85.57 1.8.85 2.83.84 2.7 0 5-1.6 5-5.5v-9.45h-2.22zm-2.68 8.14c-.55-.02-1.06-.17-1.52-.46-.46-.3-.82-.68-1.08-1.17-.25-.5-.34-1-.32-1.56-.02-.53.07-1.06.32-1.55.26-.5.62-.88 1.08-1.18.46-.3.97-.45 1.52-.47.55.03 1.04.2 1.5.5.46.3.8.7 1.03 1.17.23.5.35 1 .3 1.54.02.55-.07 1.06-.3 1.53-.23.48-.6.87-1.03 1.17-.44.3-.97.46-1.5.5zm0 0M503.28 240.47h2.33v15.47h-2.32zM511.96 254.2c-.56 0-1.06-.13-1.52-.42-.46-.3-.8-.7-1.04-1.2l7.06-2.9-.25-.6c-.3-.98-.9-1.78-1.7-2.4-.84-.6-1.76-.93-2.8-.95-.92 0-1.8.23-2.6.7-.8.5-1.4 1.13-1.84 1.95-.43.82-.62 1.7-.57 2.62-.03.94.2 1.82.66 2.64.46.83 1.1 1.47 1.93 1.94.82.47 1.7.7 2.63.68.88 0 1.73-.2 2.5-.6.8-.43 1.4-1 1.9-1.73l-1.8-1.2c-.27.45-.64.8-1.1 1.07-.46.26-.94.4-1.47.4zm-.2-6.44c.43-.04.82.04 1.18.25.37.2.65.5.83.88l-4.7 2c-.06-.53.03-1.02.26-1.5.23-.47.56-.85 1-1.14.43-.3.9-.45 1.44-.48zm0 0M521.04 248.8c-.02-1.34.28-2.6.94-3.76.67-1.16 1.57-2.08 2.74-2.74 1.17-.67 2.42-1 3.75-.96 1-.02 1.98.17 2.9.58.92.4 1.7 1 2.37 1.75l-1.3 1.24c-.47-.6-1.07-1.06-1.8-1.38-.7-.32-1.4-.46-2.2-.43-1-.03-1.97.22-2.85.73-.88.5-1.57 1.2-2.05 2.1-.48.9-.7 1.85-.67 2.87-.04 1 .2 1.95.7 2.84.47.88 1.14 1.58 2 2.08.9.5 1.83.75 2.84.73.86 0 1.66-.16 2.42-.5.76-.36 1.42-.85 1.98-1.5l1.28 1.3c-1.03 1.15-2.27 1.9-3.8 2.28-1.5.38-2.98.3-4.43-.26-1.45-.55-2.64-1.46-3.52-2.74-.87-1.27-1.3-2.68-1.3-4.23zm0 0M535.55 255.94v-14.28h1.84v14.28zM548.83 251.06c0 1.38-.5 2.56-1.48 3.55-1 1-2.18 1.48-3.56 1.48-1.4 0-2.56-.5-3.55-1.47-1-.97-1.48-2.16-1.48-3.54 0-1.4.5-2.58 1.48-3.56 1-.98 2.16-1.47 3.54-1.47 1.37 0 2.56.5 3.55 1.47 1 .98 1.48 2.17 1.48 3.56zm-1.85 0c.07-.74-.1-1.4-.5-2-.4-.63-.97-1.05-1.66-1.3-.7-.22-1.38-.22-2.07 0-.7.25-1.24.68-1.63 1.3-.4.6-.6 1.26-.53 2 0 .88.3 1.63.93 2.26.63.63 1.38.94 2.28.94.9 0 1.67-.3 2.3-.94.6-.63.93-1.38.93-2.26zM557.13 255.94v-1.36H557c-.33.53-.77.93-1.32 1.23-.55.3-1.15.46-1.77.46-2.52 0-3.72-1.7-3.72-4.1v-6h1.84v5.7c0 2 1 2.72 2.42 2.72.76-.06 1.4-.38 1.9-.97.5-.57.72-1.24.67-2v-5.4h1.85v9.77h-1.75zM560.37 251.06c-.07-1.36.37-2.54 1.27-3.55.9-1 2.02-1.56 3.38-1.65.66-.02 1.3.12 1.88.4.6.3 1.08.73 1.45 1.27h.07l-.07-1.36v-4.5h1.84v14.28h-1.78v-1.36h-.07c-.37.55-.85.97-1.45 1.27-.6.3-1.22.43-1.88.4-1.36-.08-2.5-.64-3.38-1.65-.9-1-1.34-2.2-1.27-3.54zm8.07 0c.1-.73-.07-1.4-.46-2.03-.4-.62-.92-1.04-1.6-1.28-.7-.25-1.4-.25-2.08 0-.7.24-1.24.66-1.63 1.28-.4.63-.55 1.3-.46 2.03-.08.72.08 1.4.47 2 .4.63.94 1.06 1.63 1.3.7.25 1.38.25 2.07 0 .7-.24 1.22-.67 1.6-1.3.4-.6.57-1.28.47-2zM575.23 255.94v-14.28h4.88c.8-.03 1.52.15 2.2.52.7.37 1.23.9 1.65 1.56.4.66.6 1.4.62 2.17-.03.8-.2 1.5-.62 2.18-.42.66-.95 1.18-1.64 1.56-.68.37-1.4.54-2.2.52h-3v5.78h-1.85zm4.9-7.54c.7 0 1.3-.24 1.77-.73.48-.5.74-1.07.74-1.76 0-.68-.26-1.27-.74-1.76-.48-.48-1.08-.73-1.77-.73H577v5h3.08zM585.86 255.94v-14.28h1.84v14.28zM589.28 253c0-2.22 2-3.42 4.3-3.42.95-.03 1.84.18 2.67.6v-.28c-.05-.6-.25-1.1-.64-1.54-.38-.44-.84-.72-1.42-.83-.57-.12-1.13-.05-1.65.2-.53.26-.92.65-1.18 1.17l-1.68-.72c.46-.9 1.15-1.54 2.05-1.97.9-.4 1.84-.5 2.83-.3 1 .22 1.8.72 2.44 1.48.63.77.95 1.66 1 2.66v5.9h-1.75v-1.36h-.1c-.34.55-.8.97-1.37 1.27-.58.3-1.2.43-1.84.4-.62.07-1.2-.04-1.77-.3-.58-.3-1-.7-1.36-1.22-.33-.53-.52-1.1-.52-1.74zm7-1.27c-.72-.47-1.48-.68-2.33-.63-1.93 0-2.7 1-2.7 1.93.06.5.3.88.68 1.18.4.3.83.44 1.3.38.8 0 1.5-.27 2.08-.82.58-.55.9-1.23.95-2.03zM600.64 252.97v-5.13h-1.72v-1.68h1.72v-3h1.84v3h2.4v1.68h-2.4v5c0 1.1.5 1.6 1.34 1.6.3 0 .55-.05.83-.17l.64 1.57c-.5.2-.98.28-1.48.26-.58.07-1.13-.03-1.66-.3s-.92-.67-1.2-1.18c-.27-.52-.38-1.07-.32-1.65zM612.6 241.84l-.62 1.57c-.27-.1-.53-.16-.83-.15-.3-.02-.57.04-.85.2-.27.14-.48.35-.62.62-.13.27-.18.56-.16.86v1.23h2.46v1.68h-2.55v8.1h-1.84v-8.1h-1.85v-1.68h1.84v-1.3c-.03-.6.1-1.18.43-1.7.32-.54.76-.95 1.3-1.23.56-.3 1.13-.4 1.76-.35.5-.03 1.02.06 1.5.26zM622.6 251.06c0 1.38-.47 2.56-1.46 3.55-1 1-2.2 1.48-3.57 1.48-1.38 0-2.57-.5-3.56-1.47-.98-.97-1.47-2.16-1.47-3.54 0-1.4.5-2.58 1.48-3.56 1-.98 2.2-1.47 3.57-1.47 1.38 0 2.58.5 3.57 1.47 1 .98 1.47 2.17 1.47 3.56zm-1.83 0c.07-.74-.12-1.4-.5-2-.4-.63-.97-1.05-1.66-1.3-.68-.22-1.37-.22-2.06 0-.7.25-1.27.68-1.66 1.3-.4.6-.57 1.26-.5 2-.07.72.1 1.4.5 2 .4.62.97 1.04 1.66 1.28.7.23 1.38.23 2.07 0 .7-.24 1.27-.66 1.66-1.28.4-.6.58-1.28.5-2zM624.08 255.94v-9.78h1.77v1.6h.07c.25-.54.67-1 1.17-1.32.5-.33 1.07-.5 1.67-.5.5-.03.95.05 1.38.22l-.7 1.72c-.33-.1-.65-.15-1-.14-.48.02-.92.16-1.33.43-.42.27-.74.6-.95 1.05-.2.43-.32.9-.27 1.38v5.34zm0 0M631.14 246.16h1.75v1.36h.08c.35-.5.78-.9 1.3-1.2.54-.3 1.12-.45 1.72-.47.66-.05 1.26.1 1.84.44.57.33.98.8 1.24 1.42.36-.6.87-1.04 1.47-1.38.6-.34 1.26-.5 1.95-.5 2.4 0 3.5 1.7 3.5 4.12v5.98h-1.84v-5.7c0-2-.78-2.72-2.18-2.72-1.4 0-2.5 1.52-2.5 3v5.4h-1.83v-5.68c0-2-.78-2.72-2.18-2.72-1.4 0-2.5 1.52-2.5 3v5.4h-1.85v-9.75z" fill="#737373"/><path d="M434.38 255.95l-2.88 5h-7.52c-.34 0-.64-.1-.94-.26-.3-.18-.53-.4-.7-.7l-6.06-10.6c-.16-.3-.26-.6-.26-.94 0-.33.1-.64.26-.93l2.3-4.05 2.85 5 4.32 7.47zm0 0" fill="#ffcc40"/><path d="M443.88 249.4l-6.1 10.6c-.16.3-.4.52-.7.7-.3.16-.6.24-.93.24h-4.65l2.88-5 4.32-7.47-4.32-7.48h5.68l3.77 6.54c.16.3.28.6.28.93 0 .33-.06.64-.22.93z" fill="#da4437"/><path d="M440.06 241h-14.3l-4.3 7.47-2.88-5 3.77-6.53c.16-.3.4-.52.7-.7.3-.16.6-.24.93-.24h12.17c.34 0 .64.08.94.25.3.17.52.4.68.7z" fill="#4284f3"/><path d="M434.38 241l4.32 7.47-4.32 7.48h-8.63l-4.3-7.48 4.3-7.48z" fill="#dfdfdf"/><path d="M426.33 248.47c0-2.06 1.68-3.74 3.75-3.74 2.07 0 3.75 1.68 3.75 3.74 0 2.06-1.68 3.74-3.75 3.74-2.07 0-3.75-1.66-3.75-3.73z" fill="#fff"/><path d="M422.35 237.1c.16-.3.4-.52.7-.7.3-.16.6-.24.93-.24h12.17c.34 0 .64.08.94.25.3.18.52.4.68.7l2.28 3.9-2.28-4.06c-.16-.3-.4-.52-.7-.7-.3-.16-.6-.24-.93-.24h-12.17c-.34 0-.64.08-.94.25-.3.17-.53.4-.7.7l-3.76 6.53v.08z" fill="#fff" fill-opacity=".2"/><path d="M421.45 248.47l4.3-7.48h14.35l-.07-.17h-14.28l-4.3 7.48" fill="#1a237e" fill-opacity=".2"/><path d="M416.28 247.7l2.3-4 2.87 5 4.3 7.47h8.56l.08-.16h-8.63l-4.3-7.53-2.87-5-2.33 4c-.18.3-.25.65-.23 1 .03-.28.12-.54.26-.78zm0 0" fill="#fff" fill-opacity=".2"/><path d="M431.6 260.78h-7.62c-.34 0-.64-.08-.94-.25-.3-.17-.53-.4-.7-.7l-6.06-10.58c-.14-.26-.23-.55-.26-.85-.02.35.07.7.26 1l6.07 10.6c.16.3.4.52.7.7.3.16.6.24.93.24h7.52z" fill="#be360c"/><path d="M438.8 248.47l-4.33-7.48h-.1l4.33 7.47zM443.88 249.25l-6.1 10.6c-.16.28-.4.5-.7.68-.3.17-.6.25-.93.25h-4.56l-.1.16h4.65c.34 0 .64-.08.94-.25.3-.18.52-.4.68-.7l6.1-10.6c.18-.3.25-.64.23-1-.02.3-.1.6-.22.85zm0 0" fill="#3e2723"/><path d="M440.06 241.15l3.77 6.55c.14.27.23.55.25.85.03-.36-.07-.7-.25-1l-3.77-6.56h-5.68l.1.15M434.38 256.1l4.4-7.63h-.08l-4.32 7.48-2.88 5h.1z" fill="#fff"/><path d="M443.88 247.54l-3.82-6.55-2.28-4.06c-.16-.3-.4-.52-.7-.7-.3-.16-.6-.24-.93-.24h-12.17c-.34 0-.64.08-.94.25-.3.17-.53.4-.7.7l-6.06 10.6c-.16.28-.26.6-.26.92 0 .34.1.65.26.94l6.07 10.6c.16.3.4.52.7.7.3.16.6.24.93.24h12.17c.34 0 .64-.08.94-.25.3-.18.52-.4.68-.7l6.1-10.6c.16-.28.25-.6.25-.93 0-.33-.1-.64-.25-.93z" fill="url(#a)"/><path d="M80 639.15a2 2 0 0 1 2-2h236a2 2 0 0 1 2 2v236a2 2 0 0 1-2 2H82a2 2 0 0 1-2-2z" fill="#f1f8e9"/><use xlink:href="#b" transform="matrix(1,0,0,1,96,653.1482125) translate(0 16.69921875)"/><use xlink:href="#c" transform="matrix(1,0,0,1,96,653.1482125) translate(137.0478515625 16.69921875)"/><use xlink:href="#d" transform="matrix(1,0,0,1,96,653.1482125) translate(0 37.79296875)"/><path d="M640 282a2 2 0 0 1 2-2h1036a2 2 0 0 1 2 2v1376a2 2 0 0 1-2 2H642a2 2 0 0 1-2-2z" fill="#e3f2fd"/><use xlink:href="#e" transform="matrix(1,0,0,1,656,295.99999999999994) translate(0 16.69921875)"/><use xlink:href="#f" transform="matrix(1,0,0,1,656,295.99999999999994) translate(56.7685546875 16.69921875)"/><use xlink:href="#g" transform="matrix(1,0,0,1,656,295.99999999999994) translate(116.8330078125 16.69921875)"/><path d="M662.26 342a2 2 0 0 1 2-2H1658a2 2 0 0 1 2 2v1276a2 2 0 0 1-2 2H664.26a2 2 0 0 1-2-2z" fill="#dff2ea"/><use xlink:href="#h" transform="matrix(1,0,0,1,678.2618073216522,355.99999999999994) translate(0 16.69921875)"/><use xlink:href="#i" transform="matrix(1,0,0,1,678.2618073216522,355.99999999999994) translate(64.0986328125 16.69921875)"/><path d="M702.26 402a2 2 0 0 1 2-2H1298a2 2 0 0 1 2 2v356a2 2 0 0 1-2 2H704.26a2 2 0 0 1-2-2z" fill="#fff3e0"/><use xlink:href="#j" transform="matrix(1,0,0,1,718.261807321652,416) translate(0 16.69921875)"/><use xlink:href="#k" transform="matrix(1,0,0,1,718.261807321652,416) translate(49.1396484375 16.69921875)"/><path d="M700 802a2 2 0 0 1 2-2h602.85a2 2 0 0 1 2 2v376a2 2 0 0 1-2 2H702a2 2 0 0 1-2-2z" fill="#fff3e0"/><use xlink:href="#l" transform="matrix(1,0,0,1,716,816) translate(0 16.69921875)"/><path d="M699.9 1222a2 2 0 0 1 2-2h602.95a2 2 0 0 1 2 2v376a2 2 0 0 1-2 2H701.9a2 2 0 0 1-2-2z" fill="#fff3e0"/><use xlink:href="#j" transform="matrix(1,0,0,1,715.895903660826,1236) translate(0 16.69921875)"/><use xlink:href="#m" transform="matrix(1,0,0,1,715.895903660826,1236) translate(49.1396484375 16.69921875)"/><path d="M920 442a2 2 0 0 1 2-2h336a2 2 0 0 1 2 2v1136a2 2 0 0 1-2 2H922a2 2 0 0 1-2-2z" fill-opacity="0"/><path d="M931.7 440.02h4m8 0h4m8.02 0h4m8 0h4m8.02 0h4m8 0h4.02m8 0h4m8 0h4.02m8 0h4m8.02 0h4m8 0h4m8.02 0h4m8 0h4m8.02 0h4m8 0h4.02m8 0h4m8.02 0h4m8 0h4m8.02 0h4m8 0h4m8.02 0h4m8 0h4m8.02-.02h4m8 0h4.02m8 0h4m8.02 0h4m8 0h4m8.02 0h2l.3.02.32.08.3.12.26.16.23.2.22.24.16.27.12.28.08.3v2m0 7.97v4m0 7.97v3.98m0 7.98v3.98m0 7.98v4m0 7.96v4m0 7.96v4m0 7.96v4m0 7.96v4m0 7.96v4m0 7.97v4m0 7.97v3.98m0 7.98v3.98m0 8v3.98m0 7.97v4m0 7.96v4m0 7.97v4m0 7.96v4m0 7.96v3.98m0 7.98v3.98m0 7.98v3.98m0 7.98v4m0 7.96v4m0 7.96v4m0 7.96v4m0 7.96v4m0 7.96v4m0 7.97v3.98m0 7.98v4m0 7.97v4m0 7.96v4m0 7.96v3.98m0 7.97v4m0 7.96v4m0 7.97v4m0 7.97v3.98m0 7.98v3.98m0 7.98v3.98m0 7.98v4m0 7.96v4m0 7.96v4m0 7.96v4m0 7.96v4m0 7.96v4m0 7.97v3.97m0 7.98v3.98m0 7.98v4m0 7.97v4m0 7.96v4m0 7.96v3.98m0 7.97v4m0 7.96v4m0 7.98v3.98m0 7.98v3.98m0 7.98v3.98m0 7.98v4m0 7.96v4m0 7.96v4m0 7.96v4m0 7.96v4m0 7.96v4m0 7.97v3.98m0 8v3.97m0 7.98v4m0 7.96v4m0 7.97v4m0 7.96v4m0 7.96v3.98m0 7.97v4m0 7.97v3.98m0 7.98v3.98m0 7.98v4m0 7.96v4m0 7.96v4m0 7.96v4m0 7.96v4m.02 7.96v4m0 7.97v4m0 7.97v3.98m0 7.98v3.98m0 8v3.98m0 7.97v4m0 7.96v4m0 7.97v4m0 7.96v4m0 7.96v3.98m0 7.98v3.98m0 7.98v3.98m0 7.98v4m0 7.96v4m0 7.96v4m0 7.96v4m0 7.96v4m0 7.96v4m0 7.97v3.98m0 7.98v2l-.02.3-.08.32-.12.3-.16.26-.2.23-.24.22-.27.16-.28.12-.3.08h-2m-8.02 0h-4m-8 0h-4m-8.02 0h-4m-8 0h-4m-8.02 0h-4m-8 0h-4.02m-8 0h-4m-8 0h-4.02m-8 0h-4m-8.02 0h-4m-8 0h-4m-8.02 0h-4m-8 0h-4m-8.02 0h-4m-8 0h-4.02m-8 0h-4m-8.02 0h-4m-8 0h-4m-8.02 0h-4m-8 0h-4m-8.02 0h-4m-8 0h-4m-8.02.02h-4m-8 0h-4.02m-8 0h-4m-8.02 0h-4m-8 0h-4m-8.02 0h-2l-.3-.02-.32-.08-.3-.12-.26-.16-.23-.2-.22-.24-.16-.27-.12-.28-.08-.3v-2m0-7.97v-4m0-7.97v-3.98m0-7.98v-3.98m0-7.98v-4m0-7.96v-4m0-7.96v-4m0-7.96v-4m0-7.96v-4m0-7.96v-4m0-7.97v-4m0-7.97v-3.98m0-7.98v-3.98m0-8v-3.98m0-7.97v-4m0-7.96v-4m0-7.97v-4m0-7.96v-4m0-7.96v-3.98m0-7.98v-3.98m0-7.98v-3.98m0-7.98v-4m0-7.96v-4m0-7.96v-4m0-7.96v-4m0-7.96v-4m0-7.96v-4m0-7.97v-3.98m0-7.98v-4m0-7.97v-4m0-7.96v-4m0-7.96v-3.98m0-7.97v-4m0-7.96v-4m0-7.97v-4m0-7.97v-3.98m0-7.98v-3.98m0-7.98v-3.98m0-7.98v-4m0-7.96v-4m0-7.96v-4m0-7.96v-4m0-7.96v-4m0-7.96v-4m0-7.97v-3.97m0-7.98v-3.98m0-7.98v-4m0-7.97v-4m0-7.96v-4m0-7.96v-3.98m0-7.97v-4m0-7.96v-4m0-7.98v-3.98m0-7.98v-3.98m0-7.98v-3.98m0-7.98v-4m0-7.96v-4m0-7.96v-4m0-7.96v-4m0-7.96v-4m0-7.96v-4m0-7.97v-3.98m0-8v-3.97m0-7.98v-4m0-7.96v-4m0-7.97v-4m0-7.96v-4m0-7.96v-3.98m0-7.97v-4m0-7.97V751m0-7.98v-3.98m0-7.98v-4m0-7.96v-4m0-7.96v-4m0-7.96v-4m0-7.96v-4m-.02-7.96v-4m0-7.97v-4m0-7.97v-3.98m0-7.98v-3.98m0-8v-3.98m0-7.97v-4m0-7.96v-4m0-7.97v-4m0-7.96v-4m0-7.96v-3.98m0-7.98v-3.98m0-7.98v-3.98m0-7.98v-4m0-7.96v-4m0-7.96v-4m0-7.96v-4m0-7.96v-4m0-7.96v-4m0-7.97v-3.98m0-7.98v-2l.02-.3.08-.32.12-.3.16-.26.2-.23.24-.22.27-.16.28-.12.3-.08h2" stroke="#000" stroke-width="2" fill="none"/><use xlink:href="#n" transform="matrix(1,0,0,1,936,456) translate(0 16.69921875)"/><use xlink:href="#o" transform="matrix(1,0,0,1,936,456) translate(79.5322265625 16.69921875)"/><use xlink:href="#p" transform="matrix(1,0,0,1,936,456) translate(152.1298828125 16.69921875)"/><path d="M1166.46 559.83l-26.36-45.3c-2.05-3.63-5.64-5.68-9.86-5.8h-52.48c-4.22.12-7.8 2.17-9.86 5.8l-26.36 45.2c-2.05 3.52-2.05 7.6 0 11.25l26.36 45.52c2.05 3.75 5.5 5.92 9.86 6.03h52.48c4.22-.1 7.8-2.28 9.86-6.03l26.36-45.17c2.05-3.76 2.05-7.86 0-11.5z" stroke="#000" stroke-opacity="0" fill="#4285f4"/><path d="M1158.87 584.2l-43.25-42.8-3.1 6.64-6.75-6.65-3.1 6.64-6.66-6.65-1.65 8.02-5.96.97-1.2 5.18-7.7 1.87 6.9 6.8-6.82 2.93 6.83 6.73-6.9 3 46.12 45.6h4.68c4.2-.16 7.78-2.27 9.84-6z" stroke="#000" stroke-opacity="0" fill-opacity=".07"/><path d="M1109.82 558.8h-11.4c-.67 0-1.2.53-1.2 1.2v11.28c0 .66.53 1.2 1.2 1.2h11.4c.66-.02 1.17-.56 1.17-1.2v-11.3c0-.65-.55-1.18-1.22-1.18" stroke="#000" stroke-opacity="0" fill="#fff"/><path d="M1127.88 557.87c.6 0 1.1-.45 1.1-1.1v-1.7c0-.6-.5-1.1-1.1-1.1h-5.56v-5.15c0-.7-.55-1.23-1.2-1.23h-5.2v-5.47c0-.6-.5-1.08-1.1-1.08h-1.8c-.6 0-1.04.5-1.04 1.08v5.5h-5.86v-5.5c-.05-.6-.55-1.08-1.15-1.08h-1.73c-.6 0-1.1.5-1.1 1.08v5.5h-5.86v-5.5c0-.6-.5-1.08-1.1-1.08h-1.73c-.65 0-1.1.5-1.1 1.08v5.5h-5.22c-.64 0-1.2.5-1.2 1.2v5.1h-5.55c-.6 0-1.1.5-1.1 1.08v1.78c0 .6.5 1.1 1.1 1.1h5.56v5.74h-5.56c-.6 0-1.1.5-1.1 1.08v1.82c0 .6.5 1.08 1.1 1.08h5.56v5.8h-5.56c-.6 0-1.1.5-1.1 1.1v1.76c0 .6.5 1.03 1.1 1.03h5.56v5.15c0 .64.5 1.18 1.2 1.18h5.2v5.5c0 .6.46 1.1 1.1 1.1h1.74c.6 0 1.1-.5 1.1-1.1v-5.5h5.86v5.5c0 .6.5 1.1 1.1 1.1h1.73c.6 0 1.1-.5 1.1-1.1v-5.5h5.9v5.5c0 .6.5 1.1 1.1 1.1h1.8c.6 0 1.1-.5 1.1-1.1v-5.5h5.2c.65-.05 1.15-.54 1.15-1.18v-5.16h5.56c.6 0 1.1-.5 1.1-1.1v-1.7c0-.65-.5-1.1-1.1-1.1h-5.56v-5.8h5.56c.6 0 1.1-.5 1.1-1.08v-1.77-.05c0-.6-.5-1.08-1.1-1.08h-5.56v-5.75h5.56zm-9.64 21.78h-28.22v-27.98h28.22z" stroke="#000" stroke-opacity="0" fill="#fff"/><use xlink:href="#q" transform="matrix(1,0,0,1,1040,627.5307699468774) translate(27.549999999999997 14.4)"/><use xlink:href="#r" transform="matrix(1,0,0,1,1040,627.5307699468774) translate(36.025 36)"/><path d="M1112.46 582.77l-26.36-45.3c-2.05-3.63-5.64-5.68-9.86-5.8h-52.48c-4.22.12-7.8 2.17-9.86 5.8l-26.36 45.2c-2.05 3.5-2.05 7.6 0 11.25l26.36 45.52c2.05 3.75 5.5 5.92 9.86 6.03h52.48c4.22-.1 7.8-2.28 9.86-6.03l26.36-45.18c2.05-3.75 2.05-7.85 0-11.5z" stroke="#000" stroke-opacity="0" fill="#4285f4"/><path d="M1104.87 607.15l-43.25-42.83-3.1 6.65-6.75-6.65-3.1 6.65-6.66-6.65-1.65 8.03-5.96.98-1.2 5.2-7.7 1.85 6.9 6.82-6.82 2.92 6.83 6.73-6.9 3 46.12 45.6h4.68c4.2-.17 7.78-2.28 9.84-6z" stroke="#000" stroke-opacity="0" fill-opacity=".07"/><path d="M1055.82 581.73h-11.4c-.67 0-1.2.54-1.2 1.2v11.3c0 .65.53 1.2 1.2 1.2h11.4c.66-.03 1.17-.57 1.17-1.2v-11.3c0-.66-.55-1.2-1.22-1.2" stroke="#000" stroke-opacity="0" fill="#fff"/><path d="M1073.88 580.8c.6 0 1.1-.44 1.1-1.08V578c0-.6-.5-1.08-1.1-1.08h-5.56v-5.16c0-.7-.55-1.23-1.2-1.23h-5.2v-5.46c0-.6-.5-1.08-1.1-1.08h-1.8c-.6 0-1.04.48-1.04 1.07v5.5h-5.86v-5.5c-.05-.6-.55-1.08-1.15-1.08h-1.73c-.6 0-1.1.48-1.1 1.07v5.5h-5.86v-5.5c0-.6-.5-1.08-1.1-1.08h-1.73c-.65 0-1.1.48-1.1 1.07v5.5h-5.22c-.64 0-1.2.5-1.2 1.2v5.1h-5.55c-.6 0-1.1.5-1.1 1.08v1.77c0 .6.5 1.08 1.1 1.08h5.56v5.76h-5.56c-.6 0-1.1.5-1.1 1.08v1.82c0 .6.5 1.08 1.1 1.08h5.56v5.8h-5.56c-.6 0-1.1.5-1.1 1.1v1.76c0 .6.5 1.03 1.1 1.03h5.56v5.16c0 .63.5 1.17 1.2 1.17h5.2v5.5c0 .6.46 1.1 1.1 1.1h1.74c.6 0 1.1-.5 1.1-1.1v-5.5h5.86v5.5c0 .6.5 1.1 1.1 1.1h1.73c.6 0 1.1-.5 1.1-1.1v-5.5h5.9v5.5c0 .6.5 1.1 1.1 1.1h1.8c.6 0 1.1-.5 1.1-1.1v-5.5h5.2c.65-.05 1.15-.54 1.15-1.18v-5.17h5.56c.6 0 1.1-.5 1.1-1.08v-1.72c0-.64-.5-1.1-1.1-1.1h-5.56v-5.8h5.56c.6 0 1.1-.48 1.1-1.07v-1.77-.06c0-.6-.5-1.08-1.1-1.08h-5.56v-5.76h5.56zm-9.64 21.8h-28.22v-28h28.22z" stroke="#000" stroke-opacity="0" fill="#fff"/><use xlink:href="#q" transform="matrix(1,0,0,1,986,650.46910625) translate(27.549999999999997 14.4)"/><use xlink:href="#r" transform="matrix(1,0,0,1,986,650.46910625) translate(36.025 36)"/><path d="M1166.46 931.1l-26.36-45.3c-2.05-3.64-5.64-5.7-9.86-5.8h-52.48c-4.22.1-7.8 2.16-9.86 5.8l-26.36 45.18c-2.05 3.53-2.05 7.62 0 11.26l26.36 45.52c2.05 3.75 5.5 5.92 9.86 6.03h52.48c4.22-.12 7.8-2.3 9.86-6.04l26.36-45.18c2.05-3.75 2.05-7.85 0-11.5z" stroke="#000" stroke-opacity="0" fill="#4285f4"/><path d="M1158.87 955.47l-43.25-42.83-3.1 6.66-6.75-6.66-3.1 6.66-6.66-6.66-1.65 8.03-5.96.98-1.2 5.2-7.7 1.86 6.9 6.82-6.82 2.92 6.83 6.73-6.9 3 46.12 45.6h4.68c4.2-.17 7.78-2.28 9.84-6z" stroke="#000" stroke-opacity="0" fill-opacity=".07"/><path d="M1109.82 930.05h-11.4c-.67 0-1.2.54-1.2 1.2v11.3c0 .65.53 1.2 1.2 1.2h11.4c.66-.03 1.17-.57 1.17-1.2v-11.3c0-.66-.55-1.2-1.22-1.2" stroke="#000" stroke-opacity="0" fill="#fff"/><path d="M1127.88 929.13c.6 0 1.1-.45 1.1-1.1v-1.7c0-.6-.5-1.1-1.1-1.1h-5.56v-5.15c0-.7-.55-1.23-1.2-1.23h-5.2v-5.46c0-.6-.5-1.1-1.1-1.1h-1.8c-.6 0-1.04.5-1.04 1.1v5.5h-5.86v-5.5c-.05-.6-.55-1.1-1.15-1.1h-1.73c-.6 0-1.1.5-1.1 1.1v5.5h-5.86v-5.5c0-.6-.5-1.1-1.1-1.1h-1.73c-.65 0-1.1.5-1.1 1.1v5.5h-5.22c-.64 0-1.2.5-1.2 1.18v5.1h-5.55c-.6 0-1.1.5-1.1 1.1v1.76c0 .6.5 1.1 1.1 1.1h5.56v5.74h-5.56c-.6 0-1.1.5-1.1 1.08v1.82c0 .6.5 1.08 1.1 1.08h5.56v5.8h-5.56c-.6 0-1.1.5-1.1 1.1v1.76c0 .6.5 1.03 1.1 1.03h5.56v5.16c0 .65.5 1.2 1.2 1.2h5.2v5.5c0 .6.46 1.08 1.1 1.08h1.74c.6 0 1.1-.5 1.1-1.08v-5.5h5.86v5.5c0 .6.5 1.08 1.1 1.08h1.73c.6 0 1.1-.5 1.1-1.08v-5.5h5.9v5.5c0 .6.5 1.08 1.1 1.08h1.8c.6 0 1.1-.5 1.1-1.08v-5.5h5.2c.65-.06 1.15-.55 1.15-1.2v-5.15h5.56c.6 0 1.1-.5 1.1-1.08v-1.72c0-.64-.5-1.1-1.1-1.1h-5.56v-5.8h5.56c.6 0 1.1-.48 1.1-1.07V936v-.04c0-.6-.5-1.08-1.1-1.08h-5.56v-5.75h5.56zm-9.64 21.78h-28.22v-27.97h28.22z" stroke="#000" stroke-opacity="0" fill="#fff"/><use xlink:href="#q" transform="matrix(1,0,0,1,1040,998.79) translate(27.549999999999997 14.4)"/><use xlink:href="#r" transform="matrix(1,0,0,1,1040,998.79) translate(36.025 36)"/><path d="M1112.46 947.9l-26.36-45.28c-2.05-3.64-5.64-5.7-9.86-5.8h-52.48c-4.22.1-7.8 2.16-9.86 5.8l-26.36 45.17c-2.05 3.52-2.05 7.62 0 11.26l26.36 45.5c2.05 3.77 5.5 5.93 9.86 6.05h52.48c4.22-.1 7.8-2.27 9.86-6.03l26.36-45.17c2.05-3.75 2.05-7.85 0-11.5z" stroke="#000" stroke-opacity="0" fill="#4285f4"/><path d="M1104.87 972.3l-43.25-42.84-3.1 6.65-6.75-6.64-3.1 6.65-6.66-6.64-1.65 8.03-5.96.96-1.2 5.2-7.7 1.86 6.9 6.8-6.82 2.93 6.83 6.74-6.9 3 46.12 45.58h4.68c4.2-.17 7.78-2.28 9.84-6z" stroke="#000" stroke-opacity="0" fill-opacity=".07"/><path d="M1055.82 946.87h-11.4c-.67 0-1.2.53-1.2 1.2v11.3c0 .64.53 1.2 1.2 1.2h11.4c.66-.04 1.17-.57 1.17-1.2v-11.3c0-.67-.55-1.2-1.22-1.2" stroke="#000" stroke-opacity="0" fill="#fff"/><path d="M1073.88 945.94c.6 0 1.1-.44 1.1-1.08v-1.72c0-.6-.5-1.08-1.1-1.08h-5.56v-5.17c0-.7-.55-1.24-1.2-1.24h-5.2v-5.45c0-.58-.5-1.08-1.1-1.08h-1.8c-.6 0-1.04.5-1.04 1.1v5.5h-5.86v-5.5c-.05-.6-.55-1.1-1.15-1.1h-1.73c-.6 0-1.1.5-1.1 1.1v5.5h-5.86v-5.5c0-.6-.5-1.1-1.1-1.1h-1.73c-.65 0-1.1.5-1.1 1.1v5.5h-5.22c-.64 0-1.2.48-1.2 1.17v5.1h-5.55c-.6 0-1.1.5-1.1 1.1v1.76c0 .6.5 1.08 1.1 1.08h5.56v5.75h-5.56c-.6 0-1.1.5-1.1 1.08v1.82c0 .6.5 1.08 1.1 1.08h5.56v5.8h-5.56c-.6 0-1.1.5-1.1 1.08v1.77c0 .6.5 1.04 1.1 1.04h5.56v5.16c0 .64.5 1.18 1.2 1.18h5.2v5.52c0 .6.46 1.08 1.1 1.08h1.74c.6 0 1.1-.5 1.1-1.08v-5.5h5.86v5.5c0 .6.5 1.08 1.1 1.08h1.73c.6 0 1.1-.5 1.1-1.08v-5.5h5.9v5.5c0 .6.5 1.08 1.1 1.08h1.8c.6 0 1.1-.5 1.1-1.08v-5.5h5.2c.65-.06 1.15-.55 1.15-1.2v-5.15h5.56c.6 0 1.1-.5 1.1-1.1v-1.7c0-.65-.5-1.1-1.1-1.1h-5.56v-5.8h5.56c.6 0 1.1-.48 1.1-1.07v-1.77-.05c0-.6-.5-1.1-1.1-1.1h-5.56v-5.74h5.56zm-9.64 21.8h-28.22v-28h28.22z" stroke="#000" stroke-opacity="0" fill="#fff"/><use xlink:href="#q" transform="matrix(1,0,0,1,986,1015.6057729167832) translate(27.549999999999997 14.4)"/><use xlink:href="#r" transform="matrix(1,0,0,1,986,1015.6057729167832) translate(36.025 36)"/><path d="M579.6 391.1l-26.36-45.3c-2.05-3.64-5.63-5.7-9.85-5.8h-52.5c-4.22.1-7.8 2.16-9.85 5.8l-26.37 45.18c-2.05 3.53-2.05 7.62 0 11.26l26.37 45.52c2.05 3.75 5.5 5.92 9.86 6.03h52.5c4.2-.12 7.8-2.3 9.84-6.04l26.37-45.18c2.06-3.75 2.06-7.85 0-11.5z" stroke="#000" stroke-opacity="0" fill="#4285f4"/><path d="M533.25 373.07l-.43 2.23-4.14-4.13-25.03 3.7-16.5 20 5.97 6.1-5.18-1.4 13.03 23.05 34.18 31.13h8.3c4.22-.16 7.76-2.3 9.83-6.03l20.2-34.77z" stroke="#000" stroke-opacity="0" fill-opacity=".07"/><path d="M547.12 396.9l-13.85-23.82-13.84 23.82 13.84 23.83 13.85-23.83z" stroke="#000" stroke-opacity="0" fill="#dde7f5"/><path d="M487.16 398.88l13.8 23.74h27.65l-13.8-23.74h-27.64z" stroke="#000" stroke-opacity="0" fill="#bcd0eb"/><path d="M514.63 394.93l14.03-23.74h-27.68l-13.82 23.73h27.47z" stroke="#000" stroke-opacity="0" fill="#fff"/><use xlink:href="#s" transform="matrix(1,0,0,1,453.1465527853429,458.78999999999996) translate(31.7265625 16.69921875)"/><g filter="url(#t)"><path d="M156 738a2 2 0 0 1 2-2h84a2 2 0 0 1 2 2v84a2 2 0 0 1-2 2h-84a2 2 0 0 1-2-2z" fill="#fff"/><path d="M212 777c2.5 0 4.6-.88 6.36-2.64 1.76-1.75 2.64-3.87 2.64-6.36 0-2.5-.88-4.6-2.64-6.36-1.75-1.76-3.87-2.64-6.36-2.64-2.5 0-4.6.88-6.36 2.64-1.76 1.75-2.64 3.87-2.64 6.36 0 2.5.88 4.6 2.64 6.36 1.75 1.76 3.87 2.64 6.36 2.64zm-24 0c2.5 0 4.6-.88 6.36-2.64 1.76-1.75 2.64-3.87 2.64-6.36 0-2.5-.88-4.6-2.64-6.36-1.75-1.76-3.87-2.64-6.36-2.64-2.5 0-4.6.88-6.36 2.64-1.76 1.75-2.64 3.87-2.64 6.36 0 2.5.88 4.6 2.64 6.36 1.75 1.76 3.87 2.64 6.36 2.64zm0 6c-7 0-21 3.5-21 10.5v7.5h42v-7.5c0-7-14-10.5-21-10.5zm24 0c-.87 0-1.86.06-2.9.15 3.47 2.52 5.9 5.9 5.9 10.35v7.5h18v-7.5c0-7-14-10.5-21-10.5zm0 0" fill="#757575"/></g><path d="M244.5 780h159.63" stroke="#333" fill="none"/><path d="M244.5 780.5h-.5v-1h.5z" stroke="#333" stroke-width=".05" fill="#333"/><path d="M418.9 780l-14.27 4.64v-9.28z" stroke="#333" fill="#333"/><path d="M453.15 76a8 8 0 0 1 8-8h836.75a8 8 0 0 1 8 8v25.16a8 8 0 0 1-8 8H461.15a8 8 0 0 1-8-8z" stroke="#000" stroke-opacity="0" stroke-width="2" fill="#fff" fill-opacity="0"/><use xlink:href="#u" transform="matrix(1,0,0,1,457.1465527853429,71.99999999994924) translate(330.8637037037037 25.782777777777778)"/><use xlink:href="#v" transform="matrix(1,0,0,1,457.1465527853429,71.99999999994924) translate(394.3797530864198 25.782777777777778)"/><path d="M681.18 107.8h404.96M681.2 107.8h-1.02M1086.12 107.8h1.02" stroke="#a9afb8" stroke-width="2" fill="none"/><path d="M453.15 117.16a8 8 0 0 1 8-8h837.7a8 8 0 0 1 8 8V120a8 8 0 0 1-8 8h-837.7a8 8 0 0 1-8-8z" stroke="#000" stroke-opacity="0" stroke-width="2" fill="#fff" fill-opacity="0"/><use xlink:href="#w" transform="matrix(1,0,0,1,457.1465527853434,113.15522395684805) translate(308.6772325102881 14.917037037037037)"/><use xlink:href="#x" transform="matrix(1,0,0,1,457.1465527853434,113.15522395684805) translate(383.8415329218107 14.917037037037037)"/><use xlink:href="#y" transform="matrix(1,0,0,1,457.1465527853434,113.15522395684805) translate(440.60778806584364 14.917037037037037)"/><use xlink:href="#z" transform="matrix(1,0,0,1,457.1465527853434,113.15522395684805) translate(453.05727366255144 14.917037037037037)"/><use xlink:href="#A" transform="matrix(1,0,0,1,457.1465527853434,113.15522395684805) translate(484.457170781893 14.917037037037037)"/><use xlink:href="#B" transform="matrix(1,0,0,1,457.1465527853434,113.15522395684805) translate(509.95099794238683 14.917037037037037)"/><path d="M1166.46 1351.1l-26.36-45.3c-2.05-3.64-5.64-5.7-9.86-5.8h-52.48c-4.22.1-7.8 2.16-9.86 5.8l-26.36 45.18c-2.05 3.53-2.05 7.62 0 11.26l26.36 45.52c2.05 3.75 5.5 5.92 9.86 6.03h52.48c4.22-.12 7.8-2.3 9.86-6.04l26.36-45.18c2.05-3.75 2.05-7.85 0-11.5z" stroke="#000" stroke-opacity="0" fill="#4285f4"/><path d="M1158.87 1375.47l-43.25-42.83-3.1 6.66-6.75-6.66-3.1 6.66-6.66-6.66-1.65 8.03-5.96.98-1.2 5.2-7.7 1.86 6.9 6.82-6.82 2.92 6.83 6.73-6.9 3 46.12 45.6h4.68c4.2-.17 7.78-2.28 9.84-6z" stroke="#000" stroke-opacity="0" fill-opacity=".07"/><path d="M1109.82 1350.05h-11.4c-.67 0-1.2.54-1.2 1.2v11.3c0 .65.53 1.2 1.2 1.2h11.4c.66-.03 1.17-.57 1.17-1.2v-11.3c0-.66-.55-1.2-1.22-1.2" stroke="#000" stroke-opacity="0" fill="#fff"/><path d="M1127.88 1349.13c.6 0 1.1-.45 1.1-1.1v-1.7c0-.6-.5-1.1-1.1-1.1h-5.56v-5.15c0-.7-.55-1.23-1.2-1.23h-5.2v-5.46c0-.6-.5-1.1-1.1-1.1h-1.8c-.6 0-1.04.5-1.04 1.1v5.5h-5.86v-5.5c-.05-.6-.55-1.1-1.15-1.1h-1.73c-.6 0-1.1.5-1.1 1.1v5.5h-5.86v-5.5c0-.6-.5-1.1-1.1-1.1h-1.73c-.65 0-1.1.5-1.1 1.1v5.5h-5.22c-.64 0-1.2.5-1.2 1.18v5.1h-5.55c-.6 0-1.1.5-1.1 1.1v1.76c0 .6.5 1.1 1.1 1.1h5.56v5.74h-5.56c-.6 0-1.1.5-1.1 1.08v1.82c0 .6.5 1.08 1.1 1.08h5.56v5.8h-5.56c-.6 0-1.1.5-1.1 1.1v1.76c0 .6.5 1.03 1.1 1.03h5.56v5.16c0 .65.5 1.2 1.2 1.2h5.2v5.5c0 .6.46 1.08 1.1 1.08h1.74c.6 0 1.1-.5 1.1-1.08v-5.5h5.86v5.5c0 .6.5 1.08 1.1 1.08h1.73c.6 0 1.1-.5 1.1-1.08v-5.5h5.9v5.5c0 .6.5 1.08 1.1 1.08h1.8c.6 0 1.1-.5 1.1-1.08v-5.5h5.2c.65-.06 1.15-.55 1.15-1.2v-5.15h5.56c.6 0 1.1-.5 1.1-1.08v-1.72c0-.64-.5-1.1-1.1-1.1h-5.56v-5.8h5.56c.6 0 1.1-.48 1.1-1.07V1356v-.04c0-.6-.5-1.08-1.1-1.08h-5.56v-5.75h5.56zm-9.64 21.78h-28.22v-27.97h28.22z" stroke="#000" stroke-opacity="0" fill="#fff"/><use xlink:href="#C" transform="matrix(1,0,0,1,1040,1418.79) translate(27.549999999999997 14.4)"/><use xlink:href="#D" transform="matrix(1,0,0,1,1040,1418.79) translate(36.025 36)"/><path d="M1103.6 1371.1l-26.37-45.3c-2.05-3.64-5.64-5.7-9.86-5.8h-52.48c-4.23.1-7.82 2.16-9.87 5.8l-26.36 45.18c-2.05 3.53-2.05 7.62 0 11.26l26.36 45.52c2.05 3.75 5.5 5.92 9.86 6.03h52.47c4.22-.12 7.8-2.3 9.86-6.04l26.36-45.18c2.04-3.75 2.04-7.85 0-11.5z" stroke="#000" stroke-opacity="0" fill="#4285f4"/><path d="M1096 1395.47l-43.25-42.83-3.1 6.66-6.74-6.66-3.1 6.66-6.66-6.66-1.66 8.03-5.96.98-1.2 5.2-7.7 1.86 6.92 6.82-6.83 2.92 6.84 6.73-6.9 3 46.1 45.6h4.7c4.2-.17 7.77-2.28 9.83-6z" stroke="#000" stroke-opacity="0" fill-opacity=".07"/><path d="M1046.95 1370.05h-11.4c-.67 0-1.2.54-1.2 1.2v11.3c0 .65.53 1.2 1.2 1.2h11.4c.66-.03 1.17-.57 1.17-1.2v-11.3c0-.66-.54-1.2-1.2-1.2" stroke="#000" stroke-opacity="0" fill="#fff"/><path d="M1065 1369.13c.6 0 1.1-.45 1.1-1.1v-1.7c0-.6-.5-1.1-1.1-1.1h-5.55v-5.15c0-.7-.55-1.23-1.2-1.23h-5.2v-5.46c0-.6-.5-1.1-1.1-1.1h-1.8c-.6 0-1.04.5-1.04 1.1v5.5h-5.85v-5.5c-.05-.6-.55-1.1-1.14-1.1h-1.73c-.6 0-1.1.5-1.1 1.1v5.5h-5.86v-5.5c0-.6-.5-1.1-1.08-1.1h-1.74c-.65 0-1.1.5-1.1 1.1v5.5h-5.2c-.66 0-1.2.5-1.2 1.18v5.1h-5.57c-.6 0-1.1.5-1.1 1.1v1.76c0 .6.5 1.1 1.1 1.1h5.57v5.74h-5.56c-.6 0-1.1.5-1.1 1.08v1.82c0 .6.5 1.08 1.1 1.08h5.57v5.8h-5.56c-.6 0-1.1.5-1.1 1.1v1.76c0 .6.5 1.03 1.1 1.03h5.57v5.16c0 .65.5 1.2 1.2 1.2h5.2v5.5c0 .6.46 1.08 1.1 1.08h1.75c.6 0 1.1-.5 1.1-1.08v-5.5h5.85v5.5c0 .6.5 1.08 1.1 1.08h1.74c.6 0 1.1-.5 1.1-1.08v-5.5h5.9v5.5c0 .6.5 1.08 1.1 1.08h1.8c.6 0 1.1-.5 1.1-1.08v-5.5h5.2c.65-.06 1.15-.55 1.15-1.2v-5.15h5.56c.6 0 1.1-.5 1.1-1.08v-1.72c0-.64-.5-1.1-1.1-1.1h-5.55v-5.8h5.56c.6 0 1.1-.48 1.1-1.07V1376v-.04c0-.6-.5-1.08-1.1-1.08h-5.55v-5.75h5.56zm-9.63 21.78h-28.22v-27.97h28.22z" stroke="#000" stroke-opacity="0" fill="#fff"/><use xlink:href="#C" transform="matrix(1,0,0,1,977.1309036608259,1438.79) translate(27.549999999999997 14.4)"/><use xlink:href="#D" transform="matrix(1,0,0,1,977.1309036608259,1438.79) translate(36.025 36)"/><path d="M1557 520.27l-58.5-25.53v25.53l58.5 25.63zm0-44.73l-58.5-25.64v25.64l58.5 25.53z" stroke="#000" stroke-opacity="0" fill="#669df6"/><path d="M1440 475.5l58.5-25.6v25.6l-58.5 25.6v-25.6zM1440 520.3l58.5-25.6v25.6l-58.5 25.6v-25.6z" stroke="#000" stroke-opacity="0" fill="#aecbfa"/><path d="M1498.5 552.3l21.93-9.6 29.32 12.82-51.25 22.38v-25.6z" stroke="#000" stroke-opacity="0" fill="#4285f4"/><path d="M1498.5 449.9l-58.5 27.78V550l58.62 27.9L1557 550v-72.2z" stroke="#000" stroke-opacity="0" stroke-width=".01" fill-opacity="0"/><use xlink:href="#E" transform="matrix(1,0,0,1,1440,582.9039368811063) translate(0 16.69921875)"/><path d="M1555.46 1291.1l-26.36-45.3c-2.05-3.64-5.64-5.7-9.86-5.8h-52.48c-4.22.1-7.8 2.16-9.86 5.8l-26.36 45.18c-2.05 3.53-2.05 7.62 0 11.26l26.36 45.52c2.05 3.75 5.5 5.92 9.86 6.03h52.48c4.22-.12 7.8-2.3 9.86-6.04l26.36-45.18c2.05-3.75 2.05-7.85 0-11.5z" stroke="#000" stroke-opacity="0" fill="#4285f4"/><path d="M1514.5 1283.58l-36.17 3.3-7 6.94 6 5.9-5.93 10.3 44.15 43.74h3.73c4.27-.14 7.77-2.32 9.82-5.97l18.35-31.6z" stroke="#000" stroke-opacity="0" fill-opacity=".07"/><path d="M1513.66 1283.3h-41.42c-.66 0-1.23.53-1.23 1.2v8.47c0 .67.54 1.2 1.24 1.2h41.42c.7 0 1.23-.53 1.23-1.2v-8.48c0-.67-.54-1.2-1.24-1.2m-6.4 7.9c-1.37 0-2.46-1.1-2.46-2.44 0-1.35 1.1-2.45 2.45-2.45 1.4 0 2.5 1.1 2.5 2.46 0 1.35-1.1 2.45-2.5 2.45M1513.66 1299.6h-41.46c-.66 0-1.2.57-1.2 1.23v8.48c0 .68.54 1.2 1.24 1.2h41.42c.7 0 1.23-.52 1.23-1.2v-8.5c0-.67-.54-1.2-1.24-1.2m-6.4 7.9c-1.37 0-2.46-1.1-2.46-2.45s1.1-2.46 2.45-2.46c1.4 0 2.5 1.1 2.5 2.45 0 1.36-1.1 2.46-2.5 2.46" stroke="#000" stroke-opacity="0" fill="#fff"/><use xlink:href="#F" transform="matrix(1,0,0,1,1429,1358.79) translate(0 16.69921875)"/><use xlink:href="#G" transform="matrix(1,0,0,1,1429,1358.79) translate(50.8798828125 16.69921875)"/><path d="M1261.5 1010h225a12 12 0 0 0 12-12V594.3" stroke="#333" fill="none"/><path d="M1261.5 1010.5h-.5v-1h.5z" stroke="#333" stroke-width=".05" fill="#333"/><path d="M1498.5 579.52l4.64 14.27h-9.28z" stroke="#333" fill="#333"/><path d="M1261.5 1010H1486a12 12 0 0 1 12 12v201.62" stroke="#333" fill="none"/><path d="M1261.5 1010.5h-.5v-1h.5z" stroke="#333" stroke-width=".05" fill="#333"/><path d="M1498 1238.38l-4.63-14.26h9.27z" stroke="#333" fill="#333"/><path d="M1498 1239.5V1022a12 12 0 0 0-12-12h-208.63" stroke="#333" fill="none"/><path d="M1498.5 1240h-1v-.5h1z" stroke="#333" stroke-width=".05" fill="#333"/><path d="M1262.6 1010l14.27-4.64v9.28z" stroke="#333" fill="#333"/><path d="M448.08 831.15l-26.04-45.4c-2.04-3.55-2.04-7.95 0-11.5l26.04-45.4c2.04-3.55 5.8-5.75 9.88-5.75h52.08c4.07 0 7.84 2.2 9.88 5.75l26.04 45.4c2.04 3.55 2.04 7.95 0 11.5l-26.04 45.4c-2.04 3.55-5.8 5.75-9.88 5.75h-52.08c-4.07 0-7.84-2.2-9.88-5.75zm0 0z" fill="#0e62c2"/><path d="M498.76 836.9l-38.9-39.17 6.04-8.16-.26-10.82 11.46-1.04-8-8.02 5.4-3.33 24.2-8.1 39.96 40.23-18.74 32.67c-2.04 3.55-5.8 5.75-9.88 5.75zm0 0" fill="#0851b0"/><path d="M482.26 768.77h3.48v21.72h-3.48zM465.08 776.76h2.55v14.97h-3.47V777.7c0-.52.4-.94.92-.94zm0 0zM500.37 776.76h2.55c.5 0 .92.42.92.93v14.03h-3.47zm0 0z" fill="#fff"/><path d="M465.08 776.76h37.84c.24 0 .47.1.65.27.18.17.27.4.27.65v2.57h-39.68v-2.57c0-.5.4-.92.92-.92zm0 0zM468.87 758.03h30.26V770h-30.26zM477.55 787.5h12.9v10.48h-12.9zM459.45 788.28c0-.43.35-.8.8-.8h11.28c.45 0 .8.36.8.8v8.9c0 .45-.34.8-.8.8h-11.27c-.45 0-.8-.34-.8-.8zm0 0M495.66 787.5h12.9v10.48h-12.9z" fill="#fff"/><g><use xlink:href="#H" transform="matrix(1,0,0,1,420,841.895) translate(18.61328125 16.69921875)"/><use xlink:href="#I" transform="matrix(1,0,0,1,420,841.895) translate(69.4931640625 16.69921875)"/><use xlink:href="#J" transform="matrix(1,0,0,1,420,841.895) translate(24.5458984375 37.79296875)"/></g><path d="M548 780h120a12 12 0 0 1 12 12v206a12 12 0 0 0 12 12h210.63" stroke="#333" fill="none"/><path d="M548 780.5h-.57l.06-.46-.08-.54h.58z" stroke="#333" stroke-width=".05" fill="#333"/><path d="M917.4 1010l-14.27 4.64v-9.28z" stroke="#333" fill="#333"/><defs><radialGradient gradientUnits="userSpaceOnUse" id="a" fx="-148675.76" fy="391397.8" cx="150758.02" cy="-389497.8" r="15797.2"><stop offset="0%" stop-color="#fff" stop-opacity=".1"/><stop offset="100%" stop-color="#fff" stop-opacity="0"/></radialGradient><path fill="#333" d="M375 0H183v-1456h192V0" id="K"/><path fill="#333" d="M589-945c-131 0-219 81-264 174V0H140v-1082h175l6 136c83-104 191-156 324-156 229 0 346 129 346 387V0H806v-716c-2-153-65-229-217-229" id="L"/><path fill="#333" d="M456 20C285 20 205-92 206-268v-671H9v-143h197v-262h185v262h202v143H391v671c-9 125 92 149 207 118V0c-49 13-96 20-142 20" id="M"/><path fill="#333" d="M599-131c141 0 220-65 285-146l113 88C906-50 770 20 589 20 281 21 93-214 93-545c0-223 93-397 233-485 74-48 154-72 240-72 300 2 449 218 445 537v77H278c0 197 129 357 321 357zm227-509c-3-180-88-310-260-310-170 0-264 140-282 310h542" id="N"/><path fill="#333" d="M663-916c-163-27-288 18-338 148V0H140v-1082h180l3 125c61-97 147-145 258-145 36 0 63 5 82 14v172" id="O"/><path fill="#333" d="M561-1102c238-4 403 126 403 351v498c0 99 13 178 38 237V0H808c-11-21-19-59-26-114C696-25 593 20 474 20c-199 0-368-130-365-320 4-251 214-359 490-356h180v-85c-1-135-86-212-229-212-115 0-232 67-233 171H131c20-205 206-316 430-320zM294-326c0 117 90 185 207 185 122 0 239-75 278-162v-222H634c-227 0-340 66-340 199" id="P"/><path fill="#333" d="M341 0H156v-1536h185V0" id="Q"/><path fill="#333" d="M177 125H18l608-1581h158" id="R"/><path fill="#333" d="M992-673H361v516h733V0H169v-1456h915v158H361v468h631v157" id="S"/><path fill="#333" d="M503-687l240-395h216L605-547 970 0H756L506-405 256 0H41l365-547-354-535h214" id="T"/><g id="b"><use transform="matrix(0.0087890625,0,0,0.0087890625,0,0)" xlink:href="#K"/><use transform="matrix(0.0087890625,0,0,0.0087890625,4.8955078125,0)" xlink:href="#L"/><use transform="matrix(0.0087890625,0,0,0.0087890625,14.8271484375,0)" xlink:href="#M"/><use transform="matrix(0.0087890625,0,0,0.0087890625,20.70703125,0)" xlink:href="#N"/><use transform="matrix(0.0087890625,0,0,0.0087890625,30.2431640625,0)" xlink:href="#O"/><use transform="matrix(0.0087890625,0,0,0.0087890625,36.333984375,0)" xlink:href="#L"/><use transform="matrix(0.0087890625,0,0,0.0087890625,46.265625,0)" xlink:href="#P"/><use transform="matrix(0.0087890625,0,0,0.0087890625,56.056640625,0)" xlink:href="#Q"/><use transform="matrix(0.0087890625,0,0,0.0087890625,60.4248046875,0)" xlink:href="#R"/><use transform="matrix(0.0087890625,0,0,0.0087890625,67.8427734375,0)" xlink:href="#S"/><use transform="matrix(0.0087890625,0,0,0.0087890625,78.0732421875,0)" xlink:href="#T"/><use transform="matrix(0.0087890625,0,0,0.0087890625,86.994140625,0)" xlink:href="#M"/><use transform="matrix(0.0087890625,0,0,0.0087890625,92.8740234375,0)" xlink:href="#N"/><use transform="matrix(0.0087890625,0,0,0.0087890625,102.41015625,0)" xlink:href="#O"/><use transform="matrix(0.0087890625,0,0,0.0087890625,108.5009765625,0)" xlink:href="#L"/><use transform="matrix(0.0087890625,0,0,0.0087890625,118.4326171875,0)" xlink:href="#P"/><use transform="matrix(0.0087890625,0,0,0.0087890625,128.2236328125,0)" xlink:href="#Q"/></g><path fill="#333" d="M520 20C244 20 95-247 95-550c0-298 151-550 427-552 127 0 227 43 301 130v-564h185V0H838l-9-116C755-25 652 20 520 20zm48-965c-210 0-288 177-288 416 0 218 87 392 286 392 117 0 203-53 257-158v-497c-55-102-140-153-255-153" id="U"/><g id="c"><use transform="matrix(0.0087890625,0,0,0.0087890625,0,0)" xlink:href="#S"/><use transform="matrix(0.0087890625,0,0,0.0087890625,10.23046875,0)" xlink:href="#L"/><use transform="matrix(0.0087890625,0,0,0.0087890625,20.162109375,0)" xlink:href="#U"/></g><path fill="#333" d="M665-137c214 0 337-121 336-332v-987h193v990c-3 300-218 486-529 486-309 0-526-181-525-484v-992h190v986c-1 210 123 333 335 333" id="V"/><path fill="#333" d="M538-131c121 0 232-49 232-156 0-50-20-88-56-117-73-60-334-92-420-143-92-55-162-110-162-238 0-190 192-317 400-317 223 0 414 129 413 338H759c0-108-110-186-227-186-119 0-215 53-215 159 0 45 18 78 53 101 76 52 331 90 416 139 98 57 169 115 169 251C955-92 760 20 538 20c-176 0-314-68-386-174-38-55-57-115-57-179h185c6 129 116 202 258 202" id="W"/><g id="d"><use transform="matrix(0.0087890625,0,0,0.0087890625,0,0)" xlink:href="#V"/><use transform="matrix(0.0087890625,0,0,0.0087890625,11.671875,0)" xlink:href="#W"/><use transform="matrix(0.0087890625,0,0,0.0087890625,20.953125,0)" xlink:href="#N"/><use transform="matrix(0.0087890625,0,0,0.0087890625,30.4892578125,0)" xlink:href="#O"/></g><path fill="#333" d="M651-255l416-1201h210L737 0H567L28-1456h209" id="X"/><path fill="#333" d="M341 0H156v-1082h185V0zm-91-1264c-68 0-108-42-109-105 0-62 41-107 109-107s110 44 110 107-42 105-110 105" id="Y"/><path fill="#333" d="M491 20c-241-1-355-148-355-398v-704h185v699c0 164 67 246 200 246 141 0 235-53 282-158v-787h185V0H812l-4-107C736-22 630 20 491 20" id="Z"/><g id="e"><use transform="matrix(0.0087890625,0,0,0.0087890625,0,0)" xlink:href="#X"/><use transform="matrix(0.0087890625,0,0,0.0087890625,11.4521484375,0)" xlink:href="#Y"/><use transform="matrix(0.0087890625,0,0,0.0087890625,15.8203125,0)" xlink:href="#O"/><use transform="matrix(0.0087890625,0,0,0.0087890625,22.3505859375,0)" xlink:href="#M"/><use transform="matrix(0.0087890625,0,0,0.0087890625,28.23046875,0)" xlink:href="#Z"/><use transform="matrix(0.0087890625,0,0,0.0087890625,38.1533203125,0)" xlink:href="#P"/><use transform="matrix(0.0087890625,0,0,0.0087890625,47.9443359375,0)" xlink:href="#Q"/></g><path fill="#333" d="M1216-1011c-1 297-202 441-512 441H361V0H169v-1456h537c297-6 510 164 510 445zm-192 2c1-178-126-288-307-289H361v571h345c196 1 318-92 318-282" id="aa"/><path fill="#333" d="M497-251l268-831h189L566 0H425L33-1082h189" id="ab"/><g id="f"><use transform="matrix(0.0087890625,0,0,0.0087890625,0,0)" xlink:href="#aa"/><use transform="matrix(0.0087890625,0,0,0.0087890625,11.35546875,0)" xlink:href="#O"/><use transform="matrix(0.0087890625,0,0,0.0087890625,17.4462890625,0)" xlink:href="#Y"/><use transform="matrix(0.0087890625,0,0,0.0087890625,21.814453125,0)" xlink:href="#ab"/><use transform="matrix(0.0087890625,0,0,0.0087890625,30.4013671875,0)" xlink:href="#P"/><use transform="matrix(0.0087890625,0,0,0.0087890625,40.1923828125,0)" xlink:href="#M"/><use transform="matrix(0.0087890625,0,0,0.0087890625,46.072265625,0)" xlink:href="#N"/></g><path fill="#333" d="M688-137c238 0 323-102 359-325h193c-32 297-228 482-552 482-361 0-569-299-569-680 0-197 8-360 73-497 88-186 257-317 513-319 316-2 509 195 535 488h-193c-31-212-118-330-342-330-272 0-397 224-393 523v141c-3 282 115 517 376 517" id="ac"/><path fill="#333" d="M584 20C278 26 81-227 91-551c10-320 175-545 491-551 308-5 503 247 494 573-9 322-175 543-492 549zm-2-970c-208 0-305 185-305 421 0 216 106 398 307 398 211 0 307-186 307-420 0-214-109-399-309-399" id="ad"/><g id="g"><use transform="matrix(0.0087890625,0,0,0.0087890625,0,0)" xlink:href="#ac"/><use transform="matrix(0.0087890625,0,0,0.0087890625,11.7158203125,0)" xlink:href="#Q"/><use transform="matrix(0.0087890625,0,0,0.0087890625,16.083984375,0)" xlink:href="#ad"/><use transform="matrix(0.0087890625,0,0,0.0087890625,26.349609375,0)" xlink:href="#Z"/><use transform="matrix(0.0087890625,0,0,0.0087890625,36.2724609375,0)" xlink:href="#U"/></g><path fill="#333" d="M1161-1018c0 201-122 330-278 388l342 618V0h-206L703-589H361V0H168v-1456h482c310-2 511 139 511 438zm-193 0c0-187-120-280-313-280H361v552h295c179 3 313-101 312-272" id="ae"/><path fill="#333" d="M521 20C240 20 96-239 96-550c0-303 147-552 427-552 132 0 235 47 309 140l9-120h169V-26c4 277-183 454-459 452-165-1-334-81-400-187l96-111c79 98 176 147 291 147 180 1 288-109 286-290v-93C750-23 649 20 521 20zm48-965c-209 0-287 178-287 416 0 217 86 392 285 392 117 0 202-53 257-159v-494c-57-103-142-155-255-155" id="af"/><path fill="#333" d="M248 11c-71 0-114-43-114-108 0-67 42-112 114-112s116 45 116 112c-1 65-45 108-116 108zm1-883c-71 0-114-43-114-108 0-67 42-112 114-112s116 45 116 112c-1 65-45 108-116 108" id="ag"/><g id="h"><use transform="matrix(0.0087890625,0,0,0.0087890625,0,0)" xlink:href="#ae"/><use transform="matrix(0.0087890625,0,0,0.0087890625,11.0830078125,0)" xlink:href="#N"/><use transform="matrix(0.0087890625,0,0,0.0087890625,20.619140625,0)" xlink:href="#af"/><use transform="matrix(0.0087890625,0,0,0.0087890625,30.7177734375,0)" xlink:href="#Y"/><use transform="matrix(0.0087890625,0,0,0.0087890625,35.0859375,0)" xlink:href="#ad"/><use transform="matrix(0.0087890625,0,0,0.0087890625,45.3515625,0)" xlink:href="#L"/><use transform="matrix(0.0087890625,0,0,0.0087890625,55.283203125,0)" xlink:href="#ag"/></g><path fill="#333" d="M632-1102c291 0 422 251 422 573 0 297-141 548-419 549-131 0-235-42-310-125v521H140v-1498h169l9 120c75-93 180-140 314-140zm-53 971c207 0 290-180 290-419 0-218-92-395-292-395-112 0-196 50-252 149v517c55 99 140 148 254 148" id="ah"/><path fill="#333" d="M525-543H37v-151h488v151" id="ai"/><path fill="#333" d="M1098-255l208-827h185L1176 0h-150L763-820 507 0H357L43-1082h184l213 810 252-810h149" id="aj"/><path fill="#333" d="M729 0H543v-1233l-373 137v-168l530-199h29V0" id="ak"/><g id="i"><use transform="matrix(0.0087890625,0,0,0.0087890625,0,0)" xlink:href="#N"/><use transform="matrix(0.0087890625,0,0,0.0087890625,9.5361328125,0)" xlink:href="#Z"/><use transform="matrix(0.0087890625,0,0,0.0087890625,19.458984375,0)" xlink:href="#O"/><use transform="matrix(0.0087890625,0,0,0.0087890625,25.3740234375,0)" xlink:href="#ad"/><use transform="matrix(0.0087890625,0,0,0.0087890625,35.6396484375,0)" xlink:href="#ah"/><use transform="matrix(0.0087890625,0,0,0.0087890625,45.73828125,0)" xlink:href="#N"/><use transform="matrix(0.0087890625,0,0,0.0087890625,55.2744140625,0)" xlink:href="#ai"/><use transform="matrix(0.0087890625,0,0,0.0087890625,60.240234375,0)" xlink:href="#aj"/><use transform="matrix(0.0087890625,0,0,0.0087890625,73.7666015625,0)" xlink:href="#N"/><use transform="matrix(0.0087890625,0,0,0.0087890625,83.302734375,0)" xlink:href="#W"/><use transform="matrix(0.0087890625,0,0,0.0087890625,92.583984375,0)" xlink:href="#M"/><use transform="matrix(0.0087890625,0,0,0.0087890625,98.4638671875,0)" xlink:href="#ak"/></g><path fill="#333" d="M313-157h833V0H86v-144l798-1154H99v-158h1015v141" id="al"/><g id="j"><use transform="matrix(0.0087890625,0,0,0.0087890625,0,0)" xlink:href="#al"/><use transform="matrix(0.0087890625,0,0,0.0087890625,10.5908203125,0)" xlink:href="#ad"/><use transform="matrix(0.0087890625,0,0,0.0087890625,20.8564453125,0)" xlink:href="#L"/><use transform="matrix(0.0087890625,0,0,0.0087890625,30.7880859375,0)" xlink:href="#N"/><use transform="matrix(0.0087890625,0,0,0.0087890625,40.32421875,0)" xlink:href="#ag"/></g><path fill="#333" d="M277-555c0 244 77 420 297 424 127 2 249-93 255-210h175C980-127 805 20 574 20 258 20 81-222 92-562c11-319 164-533 481-540 237-5 426 165 431 392H829c-7-133-115-242-256-240-209 4-296 166-296 395" id="am"/><g id="k"><use transform="matrix(0.0087890625,0,0,0.0087890625,0,0)" xlink:href="#N"/><use transform="matrix(0.0087890625,0,0,0.0087890625,9.5361328125,0)" xlink:href="#Z"/><use transform="matrix(0.0087890625,0,0,0.0087890625,19.458984375,0)" xlink:href="#O"/><use transform="matrix(0.0087890625,0,0,0.0087890625,25.3740234375,0)" xlink:href="#ad"/><use transform="matrix(0.0087890625,0,0,0.0087890625,35.6396484375,0)" xlink:href="#ah"/><use transform="matrix(0.0087890625,0,0,0.0087890625,45.73828125,0)" xlink:href="#N"/><use transform="matrix(0.0087890625,0,0,0.0087890625,55.2744140625,0)" xlink:href="#ai"/><use transform="matrix(0.0087890625,0,0,0.0087890625,60.240234375,0)" xlink:href="#aj"/><use transform="matrix(0.0087890625,0,0,0.0087890625,73.7666015625,0)" xlink:href="#N"/><use transform="matrix(0.0087890625,0,0,0.0087890625,83.302734375,0)" xlink:href="#W"/><use transform="matrix(0.0087890625,0,0,0.0087890625,92.583984375,0)" xlink:href="#M"/><use transform="matrix(0.0087890625,0,0,0.0087890625,98.4638671875,0)" xlink:href="#ak"/><use transform="matrix(0.0087890625,0,0,0.0087890625,108.5712890625,0)" xlink:href="#ai"/><use transform="matrix(0.0087890625,0,0,0.0087890625,113.537109375,0)" xlink:href="#am"/></g><g id="l"><use transform="matrix(0.0087890625,0,0,0.0087890625,0,0)" xlink:href="#al"/><use transform="matrix(0.0087890625,0,0,0.0087890625,10.5908203125,0)" xlink:href="#ad"/><use transform="matrix(0.0087890625,0,0,0.0087890625,20.8564453125,0)" xlink:href="#L"/><use transform="matrix(0.0087890625,0,0,0.0087890625,30.7880859375,0)" xlink:href="#N"/><use transform="matrix(0.0087890625,0,0,0.0087890625,40.32421875,0)" xlink:href="#ag"/><use transform="matrix(0.0087890625,0,0,0.0087890625,44.68359375,0)" xlink:href="#N"/><use transform="matrix(0.0087890625,0,0,0.0087890625,54.2197265625,0)" xlink:href="#Z"/><use transform="matrix(0.0087890625,0,0,0.0087890625,64.142578125,0)" xlink:href="#O"/><use transform="matrix(0.0087890625,0,0,0.0087890625,70.0576171875,0)" xlink:href="#ad"/><use transform="matrix(0.0087890625,0,0,0.0087890625,80.3232421875,0)" xlink:href="#ah"/><use transform="matrix(0.0087890625,0,0,0.0087890625,90.421875,0)" xlink:href="#N"/><use transform="matrix(0.0087890625,0,0,0.0087890625,99.9580078125,0)" xlink:href="#ai"/><use transform="matrix(0.0087890625,0,0,0.0087890625,104.923828125,0)" xlink:href="#aj"/><use transform="matrix(0.0087890625,0,0,0.0087890625,118.4501953125,0)" xlink:href="#N"/><use transform="matrix(0.0087890625,0,0,0.0087890625,127.986328125,0)" xlink:href="#W"/><use transform="matrix(0.0087890625,0,0,0.0087890625,137.267578125,0)" xlink:href="#M"/><use transform="matrix(0.0087890625,0,0,0.0087890625,143.1474609375,0)" xlink:href="#ak"/><use transform="matrix(0.0087890625,0,0,0.0087890625,153.2548828125,0)" xlink:href="#ai"/><use transform="matrix(0.0087890625,0,0,0.0087890625,158.220703125,0)" xlink:href="#U"/></g><path fill="#333" d="M634-1102c292 0 422 254 422 573 0 298-143 547-420 549-137 0-242-48-317-145L310 0H140v-1536h185v573c75-93 178-139 309-139zm-44 965c207 0 281-175 281-413 0-224-79-395-283-395-122 0-210 57-263 170v468c57 113 145 170 265 170" id="an"/><g id="m"><use transform="matrix(0.0087890625,0,0,0.0087890625,0,0)" xlink:href="#N"/><use transform="matrix(0.0087890625,0,0,0.0087890625,9.5361328125,0)" xlink:href="#Z"/><use transform="matrix(0.0087890625,0,0,0.0087890625,19.458984375,0)" xlink:href="#O"/><use transform="matrix(0.0087890625,0,0,0.0087890625,25.3740234375,0)" xlink:href="#ad"/><use transform="matrix(0.0087890625,0,0,0.0087890625,35.6396484375,0)" xlink:href="#ah"/><use transform="matrix(0.0087890625,0,0,0.0087890625,45.73828125,0)" xlink:href="#N"/><use transform="matrix(0.0087890625,0,0,0.0087890625,55.2744140625,0)" xlink:href="#ai"/><use transform="matrix(0.0087890625,0,0,0.0087890625,60.240234375,0)" xlink:href="#aj"/><use transform="matrix(0.0087890625,0,0,0.0087890625,73.7666015625,0)" xlink:href="#N"/><use transform="matrix(0.0087890625,0,0,0.0087890625,83.302734375,0)" xlink:href="#W"/><use transform="matrix(0.0087890625,0,0,0.0087890625,92.583984375,0)" xlink:href="#M"/><use transform="matrix(0.0087890625,0,0,0.0087890625,98.4638671875,0)" xlink:href="#ak"/><use transform="matrix(0.0087890625,0,0,0.0087890625,108.5712890625,0)" xlink:href="#ai"/><use transform="matrix(0.0087890625,0,0,0.0087890625,113.537109375,0)" xlink:href="#an"/></g><path fill="#333" d="M1240-945c-141 0-250 95-250 227V0H804v-709c0-157-77-236-231-236-121 0-204 52-249 155V0H139v-1082h175l5 120c79-93 186-140 321-140 151 0 254 58 309 174 69-98 181-174 345-174 237 0 362 126 362 377V0h-185v-714c-2-159-67-231-231-231" id="ao"/><g id="n"><use transform="matrix(0.0087890625,0,0,0.0087890625,0,0)" xlink:href="#ao"/><use transform="matrix(0.0087890625,0,0,0.0087890625,15.7763671875,0)" xlink:href="#P"/><use transform="matrix(0.0087890625,0,0,0.0087890625,25.5673828125,0)" xlink:href="#L"/><use transform="matrix(0.0087890625,0,0,0.0087890625,35.4990234375,0)" xlink:href="#P"/><use transform="matrix(0.0087890625,0,0,0.0087890625,45.2900390625,0)" xlink:href="#af"/><use transform="matrix(0.0087890625,0,0,0.0087890625,55.388671875,0)" xlink:href="#N"/><use transform="matrix(0.0087890625,0,0,0.0087890625,64.9248046875,0)" xlink:href="#U"/></g><g id="o"><use transform="matrix(0.0087890625,0,0,0.0087890625,0,0)" xlink:href="#Y"/><use transform="matrix(0.0087890625,0,0,0.0087890625,4.3681640625,0)" xlink:href="#L"/><use transform="matrix(0.0087890625,0,0,0.0087890625,14.2998046875,0)" xlink:href="#W"/><use transform="matrix(0.0087890625,0,0,0.0087890625,23.5810546875,0)" xlink:href="#M"/><use transform="matrix(0.0087890625,0,0,0.0087890625,29.4609375,0)" xlink:href="#P"/><use transform="matrix(0.0087890625,0,0,0.0087890625,39.251953125,0)" xlink:href="#L"/><use transform="matrix(0.0087890625,0,0,0.0087890625,49.18359375,0)" xlink:href="#am"/><use transform="matrix(0.0087890625,0,0,0.0087890625,58.60546875,0)" xlink:href="#N"/></g><g id="p"><use transform="matrix(0.0087890625,0,0,0.0087890625,0,0)" xlink:href="#af"/><use transform="matrix(0.0087890625,0,0,0.0087890625,10.0986328125,0)" xlink:href="#O"/><use transform="matrix(0.0087890625,0,0,0.0087890625,16.013671875,0)" xlink:href="#ad"/><use transform="matrix(0.0087890625,0,0,0.0087890625,26.279296875,0)" xlink:href="#Z"/><use transform="matrix(0.0087890625,0,0,0.0087890625,36.2021484375,0)" xlink:href="#ah"/></g><path fill="#333" d="M212-179c-10-28-35-45-73-45-59 0-87 40-87 99 0 60 29 101 89 101 43 0 62-24 78-52l27 14C228-24 195 4 139 4 59 4 22-46 18-125c-6-104 99-153 187-111 19 9 31 26 39 46" id="ap"/><path fill="#333" d="M100-194c62-1 85 37 85 99 1 63-27 99-86 99S16-35 15-95c0-66 28-99 85-99zM99-20c44 1 53-31 53-75 0-43-8-75-51-75s-53 32-53 75 10 74 51 75" id="aq"/><path fill="#333" d="M210-169c-67 3-38 105-44 169h-31v-121c0-29-5-50-35-48C34-165 62-65 56 0H25l-1-190h30c1 10-1 24 2 32 10-44 99-50 107 0 11-21 27-35 58-36 85-2 47 119 55 194h-31v-121c0-29-5-49-35-48" id="ar"/><path fill="#333" d="M115-194c55 1 70 41 70 98S169 2 115 4C84 4 66-9 55-30l1 105H24l-1-265h31l2 30c10-21 28-34 59-34zm-8 174c40 0 45-34 45-75s-6-73-45-74c-42 0-51 32-51 76 0 43 10 73 51 73" id="as"/><path fill="#333" d="M84 4C-5 8 30-112 23-190h32v120c0 31 7 50 39 49 72-2 45-101 50-169h31l1 190h-30c-1-10 1-25-2-33-11 22-28 36-60 37" id="at"/><path fill="#333" d="M59-47c-2 24 18 29 38 22v24C64 9 27 4 27-40v-127H5v-23h24l9-43h21v43h35v23H59v120" id="au"/><path fill="#333" d="M100-194c63 0 86 42 84 106H49c0 40 14 67 53 68 26 1 43-12 49-29l28 8c-11 28-37 45-77 45C44 4 14-33 15-96c1-61 26-98 85-98zm52 81c6-60-76-77-97-28-3 7-6 17-6 28h103" id="av"/><g id="q"><use transform="matrix(0.05,0,0,0.05,0,0)" xlink:href="#ap"/><use transform="matrix(0.05,0,0,0.05,12.950000000000001,0)" xlink:href="#aq"/><use transform="matrix(0.05,0,0,0.05,22.950000000000003,0)" xlink:href="#ar"/><use transform="matrix(0.05,0,0,0.05,37.900000000000006,0)" xlink:href="#as"/><use transform="matrix(0.05,0,0,0.05,47.900000000000006,0)" xlink:href="#at"/><use transform="matrix(0.05,0,0,0.05,57.900000000000006,0)" xlink:href="#au"/><use transform="matrix(0.05,0,0,0.05,62.900000000000006,0)" xlink:href="#av"/></g><path fill="#333" d="M30 0v-248h187v28H63v79h144v27H63v87h162V0H30" id="aw"/><path fill="#333" d="M117-194c89-4 53 116 60 194h-32v-121c0-31-8-49-39-48C34-167 62-67 57 0H25l-1-190h30c1 10-1 24 2 32 11-22 29-35 61-36" id="ax"/><path fill="#333" d="M177-190C167-65 218 103 67 71c-23-6-38-20-44-43l32-5c15 47 100 32 89-28v-30C133-14 115 1 83 1 29 1 15-40 15-95c0-56 16-97 71-98 29-1 48 16 59 35 1-10 0-23 2-32h30zM94-22c36 0 50-32 50-73 0-42-14-75-50-75-39 0-46 34-46 75s6 73 46 73" id="ay"/><path fill="#333" d="M24-231v-30h32v30H24zM24 0v-190h32V0H24" id="az"/><g id="r"><use transform="matrix(0.05,0,0,0.05,0,0)" xlink:href="#aw"/><use transform="matrix(0.05,0,0,0.05,12,0)" xlink:href="#ax"/><use transform="matrix(0.05,0,0,0.05,22,0)" xlink:href="#ay"/><use transform="matrix(0.05,0,0,0.05,32,0)" xlink:href="#az"/><use transform="matrix(0.05,0,0,0.05,35.95,0)" xlink:href="#ax"/><use transform="matrix(0.05,0,0,0.05,45.95,0)" xlink:href="#av"/></g><path fill="#333" d="M362-157h690V0H169v-1456h193v1299" id="aA"/><g id="s"><use transform="matrix(0.0087890625,0,0,0.0087890625,0,0)" xlink:href="#aA"/><use transform="matrix(0.0087890625,0,0,0.0087890625,9.685546875,0)" xlink:href="#ad"/><use transform="matrix(0.0087890625,0,0,0.0087890625,19.951171875,0)" xlink:href="#af"/><use transform="matrix(0.0087890625,0,0,0.0087890625,30.0498046875,0)" xlink:href="#af"/><use transform="matrix(0.0087890625,0,0,0.0087890625,40.1484375,0)" xlink:href="#Y"/><use transform="matrix(0.0087890625,0,0,0.0087890625,44.5166015625,0)" xlink:href="#L"/><use transform="matrix(0.0087890625,0,0,0.0087890625,54.4482421875,0)" xlink:href="#af"/></g><filter id="t" filterUnits="objectBoundingBox" x="-.02" y="-.01" width="1.03" height="1.03"><feOffset result="offOut" in="SourceAlpha" dy="1"/><feGaussianBlur result="blurOut" in="offOut" stdDeviation=".75"/><feColorMatrix result="colorOut" in="blurOut" values="0 0 0 0 0 0 0 0 0 0 0 0 0 0 0 0 0 0 0.4 0"/><feBlend in="SourceGraphic" in2="colorOut"/></filter><path fill="#a9afb8" d="M67-125c0 54 23 88 75 88 28 0 53-7 68-21v-34h-60v-39h108v91C232-14 192 4 140 4 58 4 20-42 15-125 8-236 126-280 215-234c19 10 29 26 37 47l-47 15c-11-23-29-39-63-39-53 1-75 33-75 86" id="aB"/><path fill="#a9afb8" d="M67-125c0 53 21 87 73 88 37 1 54-22 65-47l45 17C233-25 199 4 140 4 58 4 20-42 15-125 8-235 124-281 211-232c18 10 29 29 36 50l-46 12c-8-25-30-41-62-41-52 0-71 34-72 86" id="aC"/><path fill="#a9afb8" d="M24-248c93 1 206-16 204 79-1 75-69 88-152 82V0H24v-248zm52 121c47 0 100 7 100-41 0-47-54-39-100-39v80" id="aD"/><g id="u"><use transform="matrix(0.0728395061728395,0,0,0.0728395061728395,0,0)" xlink:href="#aB"/><use transform="matrix(0.0728395061728395,0,0,0.0728395061728395,20.39506172839506,0)" xlink:href="#aC"/><use transform="matrix(0.0728395061728395,0,0,0.0728395061728395,39.26049382716049,0)" xlink:href="#aD"/></g><path fill="#a9afb8" d="M88-194c31-1 46 15 58 34l-1-101h50l1 261h-48c-2-10 0-23-3-31C134-8 116 4 84 4 32 4 16-41 15-95c0-56 19-97 73-99zm17 164c33 0 40-30 41-66 1-37-9-64-41-64s-38 30-39 65c0 43 13 65 39 65" id="aE"/><path fill="#a9afb8" d="M110-194c64 0 96 36 96 99 0 64-35 99-97 99-61 0-95-36-95-99 0-62 34-99 96-99zm-1 164c35 0 45-28 45-65 0-40-10-65-43-65-34 0-45 26-45 65 0 36 10 65 43 65" id="aF"/><path fill="#a9afb8" d="M190-63c-7 42-38 67-86 67-59 0-84-38-90-98-12-110 154-137 174-36l-49 2c-2-19-15-32-35-32-30 0-35 28-38 64-6 74 65 87 74 30" id="aG"/><path fill="#a9afb8" d="M85 4C-2 5 27-109 22-190h50c7 57-23 150 33 157 60-5 35-97 40-157h50l1 190h-47c-2-12 1-28-3-38-12 25-28 42-61 42" id="aH"/><path fill="#a9afb8" d="M137-138c1-29-70-34-71-4 15 46 118 7 119 86 1 83-164 76-172 9l43-7c4 19 20 25 44 25 33 8 57-30 24-41C81-84 22-81 20-136c-2-80 154-74 161-7" id="aI"/><path fill="#a9afb8" d="M115-3C79 11 28 4 28-45v-112H4v-33h27l15-45h31v45h36v33H77v99c-1 23 16 31 38 25v30" id="aJ"/><path fill="#a9afb8" d="M135-150c-39-12-60 13-60 57V0H25l-1-190h47c2 13-1 29 3 40 6-28 27-53 61-41v41" id="aK"/><path fill="#a9afb8" d="M185-48c-13 30-37 53-82 52C43 2 14-33 14-96s30-98 90-98c62 0 83 45 84 108H66c0 31 8 55 39 56 18 0 30-7 34-22zm-45-69c5-46-57-63-70-21-2 6-4 13-4 21h74" id="aL"/><g id="v"><use transform="matrix(0.0728395061728395,0,0,0.0728395061728395,0,0)" xlink:href="#aE"/><use transform="matrix(0.0728395061728395,0,0,0.0728395061728395,15.95185185185185,0)" xlink:href="#aF"/><use transform="matrix(0.0728395061728395,0,0,0.0728395061728395,31.9037037037037,0)" xlink:href="#aG"/><use transform="matrix(0.0728395061728395,0,0,0.0728395061728395,46.471604938271604,0)" xlink:href="#aH"/><use transform="matrix(0.0728395061728395,0,0,0.0728395061728395,62.42345679012345,0)" xlink:href="#aI"/><use transform="matrix(0.0728395061728395,0,0,0.0728395061728395,76.99135802469135,0)" xlink:href="#aJ"/><use transform="matrix(0.0728395061728395,0,0,0.0728395061728395,85.65925925925926,0)" xlink:href="#aF"/><use transform="matrix(0.0728395061728395,0,0,0.0728395061728395,101.61111111111111,0)" xlink:href="#aK"/><use transform="matrix(0.0728395061728395,0,0,0.0728395061728395,111.80864197530865,0)" xlink:href="#aL"/></g><path fill="#a9afb8" d="M266 0h-40l-56-210L115 0H75L2-248h35L96-30l15-64 43-154h32l59 218 59-218h35" id="aM"/><path fill="#a9afb8" d="M100-194c63 0 86 42 84 106H49c0 40 14 67 53 68 26 1 43-12 49-29l28 8c-11 28-37 45-77 45C44 4 14-33 15-96c1-61 26-98 85-98zm52 81c6-60-76-77-97-28-3 7-6 17-6 28h103" id="aN"/><path fill="#a9afb8" d="M24 0v-261h32V0H24" id="aO"/><path fill="#a9afb8" d="M24-231v-30h32v30H24zM24 0v-190h32V0H24" id="aP"/><path fill="#a9afb8" d="M117-194c89-4 53 116 60 194h-32v-121c0-31-8-49-39-48C34-167 62-67 57 0H25l-1-190h30c1 10-1 24 2 32 11-22 29-35 61-36" id="aQ"/><path fill="#a9afb8" d="M177-190C167-65 218 103 67 71c-23-6-38-20-44-43l32-5c15 47 100 32 89-28v-30C133-14 115 1 83 1 29 1 15-40 15-95c0-56 16-97 71-98 29-1 48 16 59 35 1-10 0-23 2-32h30zM94-22c36 0 50-32 50-73 0-42-14-75-50-75-39 0-46 34-46 75s6 73 46 73" id="aR"/><path fill="#a9afb8" d="M59-47c-2 24 18 29 38 22v24C64 9 27 4 27-40v-127H5v-23h24l9-43h21v43h35v23H59v120" id="aS"/><path fill="#a9afb8" d="M100-194c62-1 85 37 85 99 1 63-27 99-86 99S16-35 15-95c0-66 28-99 85-99zM99-20c44 1 53-31 53-75 0-43-8-75-51-75s-53 32-53 75 10 74 51 75" id="aT"/><g id="w"><use transform="matrix(0.04248971193415638,0,0,0.04248971193415638,0,0)" xlink:href="#aM"/><use transform="matrix(0.04248971193415638,0,0,0.04248971193415638,14.106584362139918,0)" xlink:href="#aN"/><use transform="matrix(0.04248971193415638,0,0,0.04248971193415638,22.604526748971193,0)" xlink:href="#aO"/><use transform="matrix(0.04248971193415638,0,0,0.04248971193415638,25.961213991769547,0)" xlink:href="#aO"/><use transform="matrix(0.04248971193415638,0,0,0.04248971193415638,29.3179012345679,0)" xlink:href="#aP"/><use transform="matrix(0.04248971193415638,0,0,0.04248971193415638,32.67458847736626,0)" xlink:href="#aQ"/><use transform="matrix(0.04248971193415638,0,0,0.04248971193415638,41.17253086419753,0)" xlink:href="#aR"/><use transform="matrix(0.04248971193415638,0,0,0.04248971193415638,49.67047325102882,0)" xlink:href="#aS"/><use transform="matrix(0.04248971193415638,0,0,0.04248971193415638,53.919444444444444,0)" xlink:href="#aT"/><use transform="matrix(0.04248971193415638,0,0,0.04248971193415638,62.41738683127572,0)" xlink:href="#aQ"/></g><path fill="#a9afb8" d="M212-179c-10-28-35-45-73-45-59 0-87 40-87 99 0 60 29 101 89 101 43 0 62-24 78-52l27 14C228-24 195 4 139 4 59 4 22-46 18-125c-6-104 99-153 187-111 19 9 31 26 39 46" id="aU"/><path fill="#a9afb8" d="M106-169C34-169 62-67 57 0H25v-261h32l-1 103c12-21 28-36 61-36 89 0 53 116 60 194h-32v-121c2-32-8-49-39-48" id="aV"/><path fill="#a9afb8" d="M114-163C36-179 61-72 57 0H25l-1-190h30c1 12-1 29 2 39 6-27 23-49 58-41v29" id="aW"/><g id="x"><use transform="matrix(0.04248971193415638,0,0,0.04248971193415638,0,0)" xlink:href="#aU"/><use transform="matrix(0.04248971193415638,0,0,0.04248971193415638,11.004835390946502,0)" xlink:href="#aV"/><use transform="matrix(0.04248971193415638,0,0,0.04248971193415638,19.502777777777776,0)" xlink:href="#aP"/><use transform="matrix(0.04248971193415638,0,0,0.04248971193415638,22.85946502057613,0)" xlink:href="#aW"/><use transform="matrix(0.04248971193415638,0,0,0.04248971193415638,27.91574074074074,0)" xlink:href="#aP"/><use transform="matrix(0.04248971193415638,0,0,0.04248971193415638,31.2724279835391,0)" xlink:href="#aR"/><use transform="matrix(0.04248971193415638,0,0,0.04248971193415638,39.77037037037037,0)" xlink:href="#aT"/></g><path fill="#a9afb8" d="M32 76v-337h29V76H32" id="aX"/><use transform="matrix(0.04248971193415638,0,0,0.04248971193415638,0,0)" xlink:href="#aX" id="y"/><path fill="#a9afb8" d="M153-248C145-148 188 4 80 4 36 3 13-21 6-62l32-5c4 25 16 42 43 43 27 0 39-20 39-49v-147H72v-28h81" id="aY"/><path fill="#a9afb8" d="M84 4C-5 8 30-112 23-190h32v120c0 31 7 50 39 49 72-2 45-101 50-169h31l1 190h-30c-1-10 1-25-2-33-11 22-28 36-60 37" id="aZ"/><path fill="#a9afb8" d="M179-190L93 31C79 59 56 82 12 73V49c39 6 53-20 64-50L1-190h34L92-34l54-156h33" id="ba"/><g id="z"><use transform="matrix(0.04248971193415638,0,0,0.04248971193415638,0,0)" xlink:href="#aY"/><use transform="matrix(0.04248971193415638,0,0,0.04248971193415638,7.648148148148148,0)" xlink:href="#aZ"/><use transform="matrix(0.04248971193415638,0,0,0.04248971193415638,16.14609053497942,0)" xlink:href="#aO"/><use transform="matrix(0.04248971193415638,0,0,0.04248971193415638,19.502777777777776,0)" xlink:href="#ba"/></g><path fill="#a9afb8" d="M101-251c82-7 93 87 43 132L82-64C71-53 59-42 53-27h129V0H18c2-99 128-94 128-182 0-28-16-43-45-43s-46 15-49 41l-32-3c6-41 34-60 81-64" id="bb"/><path fill="#a9afb8" d="M99-251c64 0 84 50 84 122C183-37 130 33 47-8c-14-7-20-23-25-40l30-5c6 39 69 39 84 7 9-19 16-44 16-74-10 22-31 35-62 35-49 0-73-33-73-83 0-54 28-83 82-83zm-1 141c31-1 51-18 51-49 0-36-14-67-51-67-34 0-49 23-49 58 0 34 15 58 49 58" id="bc"/><path fill="#a9afb8" d="M68-38c1 34 0 65-14 84H32c9-13 17-26 17-46H33v-38h35" id="bd"/><g id="A"><use transform="matrix(0.04248971193415638,0,0,0.04248971193415638,0,0)" xlink:href="#bb"/><use transform="matrix(0.04248971193415638,0,0,0.04248971193415638,8.497942386831275,0)" xlink:href="#bc"/><use transform="matrix(0.04248971193415638,0,0,0.04248971193415638,16.99588477366255,0)" xlink:href="#bd"/></g><path fill="#a9afb8" d="M101-251c68 0 85 55 85 127S166 4 100 4C33 4 14-52 14-124c0-73 17-127 87-127zm-1 229c47 0 54-49 54-102s-4-102-53-102c-51 0-55 48-55 102 0 53 5 102 54 102" id="be"/><g id="B"><use transform="matrix(0.04248971193415638,0,0,0.04248971193415638,0,0)" xlink:href="#bb"/><use transform="matrix(0.04248971193415638,0,0,0.04248971193415638,8.497942386831275,0)" xlink:href="#be"/><use transform="matrix(0.04248971193415638,0,0,0.04248971193415638,16.99588477366255,0)" xlink:href="#bb"/><use transform="matrix(0.04248971193415638,0,0,0.04248971193415638,25.493827160493822,0)" xlink:href="#bb"/></g><g id="C"><use transform="matrix(0.05,0,0,0.05,0,0)" xlink:href="#ap"/><use transform="matrix(0.05,0,0,0.05,12.950000000000001,0)" xlink:href="#aq"/><use transform="matrix(0.05,0,0,0.05,22.950000000000003,0)" xlink:href="#ar"/><use transform="matrix(0.05,0,0,0.05,37.900000000000006,0)" xlink:href="#as"/><use transform="matrix(0.05,0,0,0.05,47.900000000000006,0)" xlink:href="#at"/><use transform="matrix(0.05,0,0,0.05,57.900000000000006,0)" xlink:href="#au"/><use transform="matrix(0.05,0,0,0.05,62.900000000000006,0)" xlink:href="#av"/></g><g id="D"><use transform="matrix(0.05,0,0,0.05,0,0)" xlink:href="#aw"/><use transform="matrix(0.05,0,0,0.05,12,0)" xlink:href="#ax"/><use transform="matrix(0.05,0,0,0.05,22,0)" xlink:href="#ay"/><use transform="matrix(0.05,0,0,0.05,32,0)" xlink:href="#az"/><use transform="matrix(0.05,0,0,0.05,35.95,0)" xlink:href="#ax"/><use transform="matrix(0.05,0,0,0.05,45.95,0)" xlink:href="#av"/></g><path d="M972-643H361V0H169v-1456h902v158H361v498h611v157" id="bf"/><path d="M341 0H156v-1082h185V0zm-91-1264c-68 0-108-42-109-105 0-62 41-107 109-107s110 44 110 107-42 105-110 105" id="bg"/><path d="M663-916c-163-27-288 18-338 148V0H140v-1082h180l3 125c61-97 147-145 258-145 36 0 63 5 82 14v172" id="bh"/><path d="M599-131c141 0 220-65 285-146l113 88C906-50 770 20 589 20 281 21 93-214 93-545c0-223 93-397 233-485 74-48 154-72 240-72 300 2 449 218 445 537v77H278c0 197 129 357 321 357zm227-509c-3-180-88-310-260-310-170 0-264 140-282 310h542" id="bi"/><path d="M538-131c121 0 232-49 232-156 0-50-20-88-56-117-73-60-334-92-420-143-92-55-162-110-162-238 0-190 192-317 400-317 223 0 414 129 413 338H759c0-108-110-186-227-186-119 0-215 53-215 159 0 45 18 78 53 101 76 52 331 90 416 139 98 57 169 115 169 251C955-92 760 20 538 20c-176 0-314-68-386-174-38-55-57-115-57-179h185c6 129 116 202 258 202" id="bj"/><path d="M456 20C285 20 205-92 206-268v-671H9v-143h197v-262h185v262h202v143H391v671c-9 125 92 149 207 118V0c-49 13-96 20-142 20" id="bk"/><path d="M584 20C278 26 81-227 91-551c10-320 175-545 491-551 308-5 503 247 494 573-9 322-175 543-492 549zm-2-970c-208 0-305 185-305 421 0 216 106 398 307 398 211 0 307-186 307-420 0-214-109-399-309-399" id="bl"/><g id="E"><use transform="matrix(0.0087890625,0,0,0.0087890625,0,0)" xlink:href="#bf"/><use transform="matrix(0.0087890625,0,0,0.0087890625,9.94921875,0)" xlink:href="#bg"/><use transform="matrix(0.0087890625,0,0,0.0087890625,14.3173828125,0)" xlink:href="#bh"/><use transform="matrix(0.0087890625,0,0,0.0087890625,20.2412109375,0)" xlink:href="#bi"/><use transform="matrix(0.0087890625,0,0,0.0087890625,29.77734375,0)" xlink:href="#bj"/><use transform="matrix(0.0087890625,0,0,0.0087890625,39.05859375,0)" xlink:href="#bk"/><use transform="matrix(0.0087890625,0,0,0.0087890625,44.7626953125,0)" xlink:href="#bl"/><use transform="matrix(0.0087890625,0,0,0.0087890625,55.0283203125,0)" xlink:href="#bh"/><use transform="matrix(0.0087890625,0,0,0.0087890625,60.9521484375,0)" xlink:href="#bi"/></g><path d="M688-137c238 0 323-102 359-325h193c-32 297-228 482-552 482-361 0-569-299-569-680 0-197 8-360 73-497 88-186 257-317 513-319 316-2 509 195 535 488h-193c-31-212-118-330-342-330-272 0-397 224-393 523v141c-3 282 115 517 376 517" id="bm"/><path d="M341 0H156v-1536h185V0" id="bn"/><path d="M491 20c-241-1-355-148-355-398v-704h185v699c0 164 67 246 200 246 141 0 235-53 282-158v-787h185V0H812l-4-107C736-22 630 20 491 20" id="bo"/><path d="M520 20C244 20 95-247 95-550c0-298 151-550 427-552 127 0 227 43 301 130v-564h185V0H838l-9-116C755-25 652 20 520 20zm48-965c-210 0-288 177-288 416 0 218 87 392 286 392 117 0 203-53 257-158v-497c-55-102-140-153-255-153" id="bp"/><g id="F"><use transform="matrix(0.0087890625,0,0,0.0087890625,0,0)" xlink:href="#bm"/><use transform="matrix(0.0087890625,0,0,0.0087890625,11.7158203125,0)" xlink:href="#bn"/><use transform="matrix(0.0087890625,0,0,0.0087890625,16.083984375,0)" xlink:href="#bl"/><use transform="matrix(0.0087890625,0,0,0.0087890625,26.349609375,0)" xlink:href="#bo"/><use transform="matrix(0.0087890625,0,0,0.0087890625,36.2724609375,0)" xlink:href="#bp"/></g><path d="M631-137c179 0 314-70 314-231 0-71-25-127-75-166s-141-77-272-115c-165-47-285-106-360-175s-112-154-112-255c0-245 231-397 495-397 206 0 369 89 449 218 43 68 65 142 65 223H942c0-184-129-283-321-283-172 0-299 76-301 236 0 59 26 109 76 150s135 78 256 113c205 59 345 116 436 256 35 53 50 119 50 193-2 256-231 398-507 390C333 12 90-129 80-422h193c0 187 160 285 358 285" id="bq"/><path d="M561-1102c238-4 403 126 403 351v498c0 99 13 178 38 237V0H808c-11-21-19-59-26-114C696-25 593 20 474 20c-199 0-368-130-365-320 4-251 214-359 490-356h180v-85c-1-135-86-212-229-212-115 0-232 67-233 171H131c20-205 206-316 430-320zM294-326c0 117 90 185 207 185 122 0 239-75 278-162v-222H634c-227 0-340 66-340 199" id="br"/><path d="M521 20C240 20 96-239 96-550c0-303 147-552 427-552 132 0 235 47 309 140l9-120h169V-26c4 277-183 454-459 452-165-1-334-81-400-187l96-111c79 98 176 147 291 147 180 1 288-109 286-290v-93C750-23 649 20 521 20zm48-965c-209 0-287 178-287 416 0 217 86 392 285 392 117 0 202-53 257-159v-494c-57-103-142-155-255-155" id="bs"/><g id="G"><use transform="matrix(0.0087890625,0,0,0.0087890625,0,0)" xlink:href="#bq"/><use transform="matrix(0.0087890625,0,0,0.0087890625,10.6787109375,0)" xlink:href="#bk"/><use transform="matrix(0.0087890625,0,0,0.0087890625,16.3828125,0)" xlink:href="#bl"/><use transform="matrix(0.0087890625,0,0,0.0087890625,26.6484375,0)" xlink:href="#bh"/><use transform="matrix(0.0087890625,0,0,0.0087890625,32.3876953125,0)" xlink:href="#br"/><use transform="matrix(0.0087890625,0,0,0.0087890625,42.1787109375,0)" xlink:href="#bs"/><use transform="matrix(0.0087890625,0,0,0.0087890625,52.27734375,0)" xlink:href="#bi"/></g><g id="H"><use transform="matrix(0.0087890625,0,0,0.0087890625,0,0)" xlink:href="#bm"/><use transform="matrix(0.0087890625,0,0,0.0087890625,11.7158203125,0)" xlink:href="#bn"/><use transform="matrix(0.0087890625,0,0,0.0087890625,16.083984375,0)" xlink:href="#bl"/><use transform="matrix(0.0087890625,0,0,0.0087890625,26.349609375,0)" xlink:href="#bo"/><use transform="matrix(0.0087890625,0,0,0.0087890625,36.2724609375,0)" xlink:href="#bp"/></g><path d="M362-157h690V0H169v-1456h193v1299" id="bt"/><g id="I"><use transform="matrix(0.0087890625,0,0,0.0087890625,0,0)" xlink:href="#bt"/><use transform="matrix(0.0087890625,0,0,0.0087890625,9.685546875,0)" xlink:href="#bl"/><use transform="matrix(0.0087890625,0,0,0.0087890625,19.951171875,0)" xlink:href="#br"/><use transform="matrix(0.0087890625,0,0,0.0087890625,29.7421875,0)" xlink:href="#bp"/></g><path d="M1160-420C1159-145 963 0 674 0H169v-1456h476c294-1 476 112 476 388 0 153-99 253-216 302 146 38 255 167 255 346zM678-157c171 2 289-95 289-261 0-175-95-263-286-263H361v524h317zm250-912c-2-172-104-229-283-229H361v463h290c157 3 278-84 277-234" id="bu"/><path d="M589-945c-131 0-219 81-264 174V0H140v-1082h175l6 136c83-104 191-156 324-156 229 0 346 129 346 387V0H806v-716c-2-153-65-229-217-229" id="bv"/><path d="M277-555c0 244 77 420 297 424 127 2 249-93 255-210h175C980-127 805 20 574 20 258 20 81-222 92-562c11-319 164-533 481-540 237-5 426 165 431 392H829c-7-133-115-242-256-240-209 4-296 166-296 395" id="bw"/><g id="J"><use transform="matrix(0.0087890625,0,0,0.0087890625,0,0)" xlink:href="#bu"/><use transform="matrix(0.0087890625,0,0,0.0087890625,11.2060546875,0)" xlink:href="#br"/><use transform="matrix(0.0087890625,0,0,0.0087890625,20.9970703125,0)" xlink:href="#bn"/><use transform="matrix(0.0087890625,0,0,0.0087890625,25.365234375,0)" xlink:href="#br"/><use transform="matrix(0.0087890625,0,0,0.0087890625,35.15625,0)" xlink:href="#bv"/><use transform="matrix(0.0087890625,0,0,0.0087890625,45.087890625,0)" xlink:href="#bw"/><use transform="matrix(0.0087890625,0,0,0.0087890625,54.509765625,0)" xlink:href="#bg"/><use transform="matrix(0.0087890625,0,0,0.0087890625,58.8779296875,0)" xlink:href="#bv"/><use transform="matrix(0.0087890625,0,0,0.0087890625,68.8095703125,0)" xlink:href="#bs"/></g></defs></g></svg>